%TF.GenerationSoftware,KiCad,Pcbnew,10.0.3*%
%TF.CreationDate,2026-06-12T10:00:56+05:30*%
%TF.ProjectId,IR sensor,49522073-656e-4736-9f72-2e6b69636164,rev?*%
%TF.SameCoordinates,Original*%
%TF.FileFunction,Profile,NP*%
%FSLAX46Y46*%
G04 Gerber Fmt 4.6, Leading zero omitted, Abs format (unit mm)*
G04 Created by KiCad (PCBNEW 10.0.3) date 2026-06-12 10:00:56*
%MOMM*%
%LPD*%
G01*
G04 APERTURE LIST*
G04 Aperture macros list*
%AMRoundRect*
0 Rectangle with rounded corners*
0 $1 Rounding radius*
0 $2 $3 $4 $5 $6 $7 $8 $9 X,Y pos of 4 corners*
0 Add a 4 corners polygon primitive as box body*
4,1,4,$2,$3,$4,$5,$6,$7,$8,$9,$2,$3,0*
0 Add four circle primitives for the rounded corners*
1,1,$1+$1,$2,$3*
1,1,$1+$1,$4,$5*
1,1,$1+$1,$6,$7*
1,1,$1+$1,$8,$9*
0 Add four rect primitives between the rounded corners*
20,1,$1+$1,$2,$3,$4,$5,0*
20,1,$1+$1,$4,$5,$6,$7,0*
20,1,$1+$1,$6,$7,$8,$9,0*
20,1,$1+$1,$8,$9,$2,$3,0*%
G04 Aperture macros list end*
%TA.AperFunction,Profile*%
%ADD10C,0.050000*%
%TD*%
%TA.AperFunction,ComponentPad*%
%ADD11R,1.700000X1.700000*%
%TD*%
%TA.AperFunction,ComponentPad*%
%ADD12C,1.700000*%
%TD*%
%TA.AperFunction,ComponentPad*%
%ADD13R,1.800000X1.800000*%
%TD*%
%TA.AperFunction,ComponentPad*%
%ADD14C,1.800000*%
%TD*%
%TA.AperFunction,ComponentPad*%
%ADD15C,1.440000*%
%TD*%
%TA.AperFunction,ViaPad*%
%ADD16C,0.600000*%
%TD*%
%TA.AperFunction,Conductor*%
%ADD17C,0.500000*%
%TD*%
%TA.AperFunction,Conductor*%
%ADD18C,0.300000*%
%TD*%
%ADD19R,1.700000X1.700000*%
%ADD20C,1.700000*%
%ADD21R,1.800000X1.800000*%
%ADD22C,1.800000*%
%ADD23C,1.440000*%
%TA.AperFunction,SMDPad,CuDef*%
%ADD24RoundRect,0.150000X-0.825000X-0.150000X0.825000X-0.150000X0.825000X0.150000X-0.825000X0.150000X0*%
%TD*%
%TA.AperFunction,SMDPad,CuDef*%
%ADD25RoundRect,0.200000X0.275000X-0.200000X0.275000X0.200000X-0.275000X0.200000X-0.275000X-0.200000X0*%
%TD*%
%TA.AperFunction,SMDPad,CuDef*%
%ADD26RoundRect,0.200000X-0.275000X0.200000X-0.275000X-0.200000X0.275000X-0.200000X0.275000X0.200000X0*%
%TD*%
%TA.AperFunction,SMDPad,CuDef*%
%ADD27RoundRect,0.200000X0.200000X0.275000X-0.200000X0.275000X-0.200000X-0.275000X0.200000X-0.275000X0*%
%TD*%
%TA.AperFunction,SMDPad,CuDef*%
%ADD28RoundRect,0.200000X-0.200000X-0.275000X0.200000X-0.275000X0.200000X0.275000X-0.200000X0.275000X0*%
%TD*%
%TA.AperFunction,SMDPad,CuDef*%
%ADD29RoundRect,0.250000X0.450000X-0.262500X0.450000X0.262500X-0.450000X0.262500X-0.450000X-0.262500X0*%
%TD*%
%TA.AperFunction,SMDPad,CuDef*%
%ADD30RoundRect,0.218750X0.256250X-0.218750X0.256250X0.218750X-0.256250X0.218750X-0.256250X-0.218750X0*%
%TD*%
%TA.AperFunction,SMDPad,CuDef*%
%ADD31RoundRect,0.250000X0.475000X-0.250000X0.475000X0.250000X-0.475000X0.250000X-0.475000X-0.250000X0*%
%TD*%
%TA.AperFunction,SMDPad,CuDef*%
%ADD32RoundRect,0.218750X-0.256250X0.218750X-0.256250X-0.218750X0.256250X-0.218750X0.256250X0.218750X0*%
%TD*%
%ADD33RoundRect,0.150000X-0.825000X-0.150000X0.825000X-0.150000X0.825000X0.150000X-0.825000X0.150000X0*%
%ADD34RoundRect,0.200000X0.275000X-0.200000X0.275000X0.200000X-0.275000X0.200000X-0.275000X-0.200000X0*%
%ADD35RoundRect,0.200000X-0.275000X0.200000X-0.275000X-0.200000X0.275000X-0.200000X0.275000X0.200000X0*%
%ADD36RoundRect,0.200000X0.200000X0.275000X-0.200000X0.275000X-0.200000X-0.275000X0.200000X-0.275000X0*%
%ADD37RoundRect,0.200000X-0.200000X-0.275000X0.200000X-0.275000X0.200000X0.275000X-0.200000X0.275000X0*%
%ADD38RoundRect,0.250000X0.450000X-0.262500X0.450000X0.262500X-0.450000X0.262500X-0.450000X-0.262500X0*%
%ADD39RoundRect,0.218750X0.256250X-0.218750X0.256250X0.218750X-0.256250X0.218750X-0.256250X-0.218750X0*%
%ADD40RoundRect,0.250000X0.475000X-0.250000X0.475000X0.250000X-0.475000X0.250000X-0.475000X-0.250000X0*%
%ADD41RoundRect,0.218750X-0.256250X0.218750X-0.256250X-0.218750X0.256250X-0.218750X0.256250X0.218750X0*%
%ADD42C,0.100000*%
%ADD43C,0.150000*%
%ADD44C,0.075000*%
%ADD45C,0.120000*%
%ADD46C,0.050000*%
%ADD47C,0.060000*%
%ADD48C,0.140000*%
%ADD49C,0.080000*%
G04 APERTURE END LIST*
D10*
X117000000Y-72000000D02*
X142200000Y-72000000D01*
X142200000Y-87200000D01*
X117000000Y-87200000D01*
X117000000Y-72000000D01*
D11*
%TO.P,J1,1,Pin_1*%
%TO.N,+5V*%
X139800000Y-77860000D03*
D12*
%TO.P,J1,2,Pin_2*%
%TO.N,GND*%
X139800000Y-80400000D03*
%TO.P,J1,3,Pin_3*%
%TO.N,/Out*%
X139800000Y-82940000D03*
%TD*%
D13*
%TO.P,D1,1,K*%
%TO.N,Net-(D1-K)*%
X121200000Y-84340000D03*
D14*
%TO.P,D1,2,A*%
%TO.N,+5V*%
X121200000Y-81800000D03*
%TD*%
D13*
%TO.P,D3,1,K*%
%TO.N,GND*%
X120577500Y-75120000D03*
D14*
%TO.P,D3,2,A*%
%TO.N,/LM393 +*%
X120577500Y-77660000D03*
%TD*%
D15*
%TO.P,RV1,1,1*%
%TO.N,+5V*%
X131340000Y-75600000D03*
%TO.P,RV1,2,2*%
%TO.N,/LM393 -*%
X128800000Y-75600000D03*
%TO.P,RV1,3,3*%
%TO.N,GND*%
X126260000Y-75600000D03*
%TD*%
D16*
%TO.N,+5V*%
X133148331Y-86350000D03*
%TO.N,GND*%
X133400000Y-78800000D03*
%TO.N,/Out*%
X128000000Y-79200000D03*
X133200000Y-84000000D03*
%TD*%
%TO.N,+5V*%
D17*
X132398331Y-85600000D02*
X133148331Y-86350000D01*
X121200000Y-81800000D02*
X125000000Y-78000000D01*
X123400000Y-82400000D02*
X123400000Y-85400000D01*
X123600000Y-85600000D02*
X132398331Y-85600000D01*
X125000000Y-78000000D02*
X130600000Y-78000000D01*
X131340000Y-77260000D02*
X131340000Y-75600000D01*
X121400000Y-82000000D02*
X123000000Y-82000000D01*
X123400000Y-85400000D02*
X123600000Y-85600000D01*
X130600000Y-78000000D02*
X131340000Y-77260000D01*
X121200000Y-81800000D02*
X121400000Y-82000000D01*
X123000000Y-82000000D02*
X123400000Y-82400000D01*
%TO.N,GND*%
X126260000Y-74940000D02*
X126260000Y-75600000D01*
X133000000Y-78400000D02*
X133000000Y-74800000D01*
X125780000Y-75120000D02*
X120577500Y-75120000D01*
X138200000Y-78800000D02*
X133400000Y-78800000D01*
X133400000Y-78800000D02*
X133000000Y-78400000D01*
X132400000Y-74200000D02*
X127000000Y-74200000D01*
X139800000Y-80400000D02*
X138200000Y-78800000D01*
X133000000Y-74800000D02*
X132400000Y-74200000D01*
X127000000Y-74200000D02*
X126260000Y-74940000D01*
X126260000Y-75600000D02*
X125780000Y-75120000D01*
%TO.N,/Out*%
D18*
X128000000Y-79200000D02*
X128400000Y-79200000D01*
X128400000Y-79200000D02*
X133200000Y-84000000D01*
%TD*%
%TA.AperFunction,Conductor*%
%TO.N,GND*%
G36*
X141642539Y-72520185D02*
G01*
X141688294Y-72572989D01*
X141699500Y-72624500D01*
X141699500Y-86575500D01*
X141679815Y-86642539D01*
X141627011Y-86688294D01*
X141575500Y-86699500D01*
X134046088Y-86699500D01*
X133979049Y-86679815D01*
X133933294Y-86627011D01*
X133923350Y-86557853D01*
X133924471Y-86551308D01*
X133948831Y-86428844D01*
X133948831Y-86271155D01*
X133948830Y-86271153D01*
X133931286Y-86182954D01*
X133918068Y-86116503D01*
X133918066Y-86116498D01*
X133857728Y-85970827D01*
X133857721Y-85970814D01*
X133770120Y-85839711D01*
X133770117Y-85839707D01*
X133658623Y-85728213D01*
X133658615Y-85728207D01*
X133527512Y-85640607D01*
X133527510Y-85640606D01*
X133503852Y-85630806D01*
X133463626Y-85603927D01*
X132876752Y-85017052D01*
X132876749Y-85017049D01*
X132809697Y-84972247D01*
X132809693Y-84972245D01*
X132803060Y-84967813D01*
X132753826Y-84934916D01*
X132617244Y-84878342D01*
X132617239Y-84878341D01*
X132617238Y-84878340D01*
X132472251Y-84849500D01*
X132472249Y-84849500D01*
X124274500Y-84849500D01*
X124207461Y-84829815D01*
X124161706Y-84777011D01*
X124150500Y-84725500D01*
X124150500Y-82326079D01*
X124121659Y-82181092D01*
X124121658Y-82181091D01*
X124121658Y-82181087D01*
X124099649Y-82127952D01*
X124065087Y-82044511D01*
X124065080Y-82044498D01*
X123982952Y-81921585D01*
X123971257Y-81909890D01*
X123878416Y-81817049D01*
X123793597Y-81732230D01*
X123478421Y-81417052D01*
X123478414Y-81417046D01*
X123377724Y-81349768D01*
X123377723Y-81349768D01*
X123355495Y-81334916D01*
X123355488Y-81334912D01*
X123218917Y-81278343D01*
X123218907Y-81278340D01*
X123082873Y-81251281D01*
X123020962Y-81218896D01*
X122986388Y-81158180D01*
X122990128Y-81088411D01*
X123019382Y-81041985D01*
X125274548Y-78786818D01*
X125335871Y-78753334D01*
X125362229Y-78750500D01*
X127134155Y-78750500D01*
X127201194Y-78770185D01*
X127246949Y-78822989D01*
X127256893Y-78892147D01*
X127248716Y-78921952D01*
X127230264Y-78966498D01*
X127230261Y-78966510D01*
X127199500Y-79121153D01*
X127199500Y-79278846D01*
X127230261Y-79433489D01*
X127230264Y-79433501D01*
X127290602Y-79579172D01*
X127290609Y-79579185D01*
X127378210Y-79710288D01*
X127378213Y-79710292D01*
X127489707Y-79821786D01*
X127489711Y-79821789D01*
X127620814Y-79909390D01*
X127620827Y-79909397D01*
X127754980Y-79964964D01*
X127766503Y-79969737D01*
X127918147Y-79999901D01*
X127921153Y-80000499D01*
X127921156Y-80000500D01*
X127921158Y-80000500D01*
X128078843Y-80000500D01*
X128116433Y-79993022D01*
X128182082Y-79979964D01*
X128251672Y-79986191D01*
X128293954Y-80013900D01*
X132382984Y-84102930D01*
X132416469Y-84164253D01*
X132416920Y-84166420D01*
X132430261Y-84233489D01*
X132430264Y-84233501D01*
X132490602Y-84379172D01*
X132490609Y-84379185D01*
X132578210Y-84510288D01*
X132578213Y-84510292D01*
X132689707Y-84621786D01*
X132689711Y-84621789D01*
X132820821Y-84709394D01*
X132966503Y-84769737D01*
X133121153Y-84800499D01*
X133121156Y-84800500D01*
X133121158Y-84800500D01*
X133278844Y-84800500D01*
X133278845Y-84800499D01*
X133433497Y-84769737D01*
X133579179Y-84709394D01*
X133710289Y-84621789D01*
X133821789Y-84510289D01*
X133909394Y-84379179D01*
X133969737Y-84233497D01*
X134000500Y-84078842D01*
X134000500Y-83921158D01*
X134000500Y-83921155D01*
X134000499Y-83921153D01*
X133980337Y-83819792D01*
X133969737Y-83766503D01*
X133969735Y-83766498D01*
X133909397Y-83620827D01*
X133909390Y-83620814D01*
X133821789Y-83489711D01*
X133821786Y-83489707D01*
X133710292Y-83378213D01*
X133710288Y-83378210D01*
X133579185Y-83290609D01*
X133579172Y-83290602D01*
X133433501Y-83230264D01*
X133433489Y-83230261D01*
X133366420Y-83216920D01*
X133304509Y-83184535D01*
X133302930Y-83182984D01*
X129082127Y-78962181D01*
X129048642Y-78900858D01*
X129053626Y-78831166D01*
X129095498Y-78775233D01*
X129160962Y-78750816D01*
X129169808Y-78750500D01*
X130673920Y-78750500D01*
X130771462Y-78731096D01*
X130818913Y-78721658D01*
X130955495Y-78665084D01*
X131017678Y-78623535D01*
X131078416Y-78582952D01*
X131922952Y-77738416D01*
X131972186Y-77664729D01*
X132005084Y-77615495D01*
X132061658Y-77478913D01*
X132080787Y-77382749D01*
X132090500Y-77333920D01*
X132090500Y-76962135D01*
X138449500Y-76962135D01*
X138449500Y-78757870D01*
X138449501Y-78757876D01*
X138455908Y-78817483D01*
X138506202Y-78952328D01*
X138506206Y-78952335D01*
X138592452Y-79067544D01*
X138592455Y-79067547D01*
X138707664Y-79153793D01*
X138707671Y-79153797D01*
X138752618Y-79170561D01*
X138842517Y-79204091D01*
X138902127Y-79210500D01*
X138912685Y-79210499D01*
X138979723Y-79230179D01*
X139000372Y-79246818D01*
X139670591Y-79917037D01*
X139607007Y-79934075D01*
X139492993Y-79999901D01*
X139399901Y-80092993D01*
X139334075Y-80207007D01*
X139317037Y-80270591D01*
X138684728Y-79638282D01*
X138684727Y-79638282D01*
X138645380Y-79692439D01*
X138548904Y-79881782D01*
X138483242Y-80083869D01*
X138483242Y-80083872D01*
X138450000Y-80293753D01*
X138450000Y-80506246D01*
X138483242Y-80716127D01*
X138483242Y-80716130D01*
X138548904Y-80918217D01*
X138645375Y-81107550D01*
X138684728Y-81161716D01*
X139317037Y-80529408D01*
X139334075Y-80592993D01*
X139399901Y-80707007D01*
X139492993Y-80800099D01*
X139607007Y-80865925D01*
X139670590Y-80882962D01*
X139038282Y-81515269D01*
X139038282Y-81515270D01*
X139092452Y-81554626D01*
X139092451Y-81554626D01*
X139101495Y-81559234D01*
X139152292Y-81607208D01*
X139169087Y-81675029D01*
X139146550Y-81741164D01*
X139101499Y-81780202D01*
X139092182Y-81784949D01*
X138920213Y-81909890D01*
X138769890Y-82060213D01*
X138644951Y-82232179D01*
X138548444Y-82421585D01*
X138482753Y-82623760D01*
X138451061Y-82823858D01*
X138449500Y-82833713D01*
X138449500Y-83046287D01*
X138459534Y-83109644D01*
X138475363Y-83209582D01*
X138482754Y-83256243D01*
X138526908Y-83392135D01*
X138548444Y-83458414D01*
X138644951Y-83647820D01*
X138769890Y-83819786D01*
X138920213Y-83970109D01*
X139092179Y-84095048D01*
X139092181Y-84095049D01*
X139092184Y-84095051D01*
X139281588Y-84191557D01*
X139483757Y-84257246D01*
X139693713Y-84290500D01*
X139693714Y-84290500D01*
X139906286Y-84290500D01*
X139906287Y-84290500D01*
X140116243Y-84257246D01*
X140318412Y-84191557D01*
X140507816Y-84095051D01*
X140530126Y-84078842D01*
X140679786Y-83970109D01*
X140679788Y-83970106D01*
X140679792Y-83970104D01*
X140830104Y-83819792D01*
X140830106Y-83819788D01*
X140830109Y-83819786D01*
X140955048Y-83647820D01*
X140955047Y-83647820D01*
X140955051Y-83647816D01*
X141051557Y-83458412D01*
X141117246Y-83256243D01*
X141150500Y-83046287D01*
X141150500Y-82833713D01*
X141117246Y-82623757D01*
X141051557Y-82421588D01*
X140955051Y-82232184D01*
X140955049Y-82232181D01*
X140955048Y-82232179D01*
X140830109Y-82060213D01*
X140679786Y-81909890D01*
X140507817Y-81784949D01*
X140498504Y-81780204D01*
X140447707Y-81732230D01*
X140430912Y-81664409D01*
X140453449Y-81598274D01*
X140498507Y-81559232D01*
X140507555Y-81554622D01*
X140561716Y-81515270D01*
X140561717Y-81515270D01*
X139929408Y-80882962D01*
X139992993Y-80865925D01*
X140107007Y-80800099D01*
X140200099Y-80707007D01*
X140265925Y-80592993D01*
X140282962Y-80529409D01*
X140915270Y-81161717D01*
X140915270Y-81161716D01*
X140954622Y-81107554D01*
X141051095Y-80918217D01*
X141116757Y-80716130D01*
X141116757Y-80716127D01*
X141150000Y-80506246D01*
X141150000Y-80293753D01*
X141116757Y-80083872D01*
X141116757Y-80083869D01*
X141051095Y-79881782D01*
X140954624Y-79692449D01*
X140915270Y-79638282D01*
X140915269Y-79638282D01*
X140282962Y-80270590D01*
X140265925Y-80207007D01*
X140200099Y-80092993D01*
X140107007Y-79999901D01*
X139992993Y-79934075D01*
X139929409Y-79917037D01*
X140599627Y-79246818D01*
X140660950Y-79213333D01*
X140687307Y-79210499D01*
X140697872Y-79210499D01*
X140757483Y-79204091D01*
X140892331Y-79153796D01*
X141007546Y-79067546D01*
X141093796Y-78952331D01*
X141144091Y-78817483D01*
X141150500Y-78757873D01*
X141150499Y-76962128D01*
X141144091Y-76902517D01*
X141142320Y-76897770D01*
X141093797Y-76767671D01*
X141093793Y-76767664D01*
X141007547Y-76652455D01*
X141007544Y-76652452D01*
X140892335Y-76566206D01*
X140892328Y-76566202D01*
X140757482Y-76515908D01*
X140757483Y-76515908D01*
X140697883Y-76509501D01*
X140697881Y-76509500D01*
X140697873Y-76509500D01*
X140697864Y-76509500D01*
X138902129Y-76509500D01*
X138902123Y-76509501D01*
X138842516Y-76515908D01*
X138707671Y-76566202D01*
X138707664Y-76566206D01*
X138592455Y-76652452D01*
X138592452Y-76652455D01*
X138506206Y-76767664D01*
X138506202Y-76767671D01*
X138455908Y-76902517D01*
X138450897Y-76949132D01*
X138449501Y-76962123D01*
X138449500Y-76962135D01*
X132090500Y-76962135D01*
X132090500Y-76626203D01*
X132110185Y-76559164D01*
X132131736Y-76534469D01*
X132131657Y-76534390D01*
X132132830Y-76533216D01*
X132133969Y-76531912D01*
X132135089Y-76530953D01*
X132135102Y-76530945D01*
X132270945Y-76395102D01*
X132383865Y-76239681D01*
X132471082Y-76068509D01*
X132530447Y-75885801D01*
X132560500Y-75696055D01*
X132560500Y-75503945D01*
X132530447Y-75314199D01*
X132492332Y-75196891D01*
X132471083Y-75131493D01*
X132471082Y-75131491D01*
X132383865Y-74960319D01*
X132270945Y-74804898D01*
X132135102Y-74669055D01*
X131979681Y-74556135D01*
X131808506Y-74468916D01*
X131625802Y-74409553D01*
X131530928Y-74394526D01*
X131436055Y-74379500D01*
X131243945Y-74379500D01*
X131180696Y-74389517D01*
X131054197Y-74409553D01*
X130871493Y-74468916D01*
X130700318Y-74556135D01*
X130670502Y-74577798D01*
X130544898Y-74669055D01*
X130544896Y-74669057D01*
X130544895Y-74669057D01*
X130409057Y-74804895D01*
X130409057Y-74804896D01*
X130409055Y-74804898D01*
X130380868Y-74843694D01*
X130296135Y-74960318D01*
X130208916Y-75131493D01*
X130187931Y-75196081D01*
X130148494Y-75253756D01*
X130084135Y-75280955D01*
X130015289Y-75269041D01*
X129963813Y-75221797D01*
X129952069Y-75196081D01*
X129931083Y-75131493D01*
X129931082Y-75131491D01*
X129843865Y-74960319D01*
X129730945Y-74804898D01*
X129595102Y-74669055D01*
X129439681Y-74556135D01*
X129268506Y-74468916D01*
X129085802Y-74409553D01*
X128990928Y-74394526D01*
X128896055Y-74379500D01*
X128703945Y-74379500D01*
X128640696Y-74389517D01*
X128514197Y-74409553D01*
X128331493Y-74468916D01*
X128160318Y-74556135D01*
X128130502Y-74577798D01*
X128004898Y-74669055D01*
X128004896Y-74669057D01*
X128004895Y-74669057D01*
X127869057Y-74804895D01*
X127869057Y-74804896D01*
X127869055Y-74804898D01*
X127840868Y-74843694D01*
X127756135Y-74960318D01*
X127668917Y-75131492D01*
X127647667Y-75196892D01*
X127608229Y-75254567D01*
X127543870Y-75281765D01*
X127475024Y-75269850D01*
X127423548Y-75222605D01*
X127411805Y-75196891D01*
X127390616Y-75131680D01*
X127303434Y-74960577D01*
X127282201Y-74931352D01*
X127282200Y-74931351D01*
X126660000Y-75553552D01*
X126660000Y-75547339D01*
X126632741Y-75445606D01*
X126580080Y-75354394D01*
X126505606Y-75279920D01*
X126414394Y-75227259D01*
X126312661Y-75200000D01*
X126306447Y-75200000D01*
X126928646Y-74577798D01*
X126899415Y-74556561D01*
X126728321Y-74469383D01*
X126545684Y-74410040D01*
X126356015Y-74380000D01*
X126163985Y-74380000D01*
X125974315Y-74410040D01*
X125791678Y-74469383D01*
X125620578Y-74556564D01*
X125591352Y-74577798D01*
X125591351Y-74577798D01*
X126213554Y-75200000D01*
X126207339Y-75200000D01*
X126105606Y-75227259D01*
X126014394Y-75279920D01*
X125939920Y-75354394D01*
X125887259Y-75445606D01*
X125860000Y-75547339D01*
X125860000Y-75553553D01*
X125237798Y-74931351D01*
X125237798Y-74931352D01*
X125216564Y-74960578D01*
X125129383Y-75131678D01*
X125070040Y-75314315D01*
X125040000Y-75503984D01*
X125040000Y-75696015D01*
X125070040Y-75885684D01*
X125129383Y-76068321D01*
X125216561Y-76239415D01*
X125237798Y-76268646D01*
X125860000Y-75646445D01*
X125860000Y-75652661D01*
X125887259Y-75754394D01*
X125939920Y-75845606D01*
X126014394Y-75920080D01*
X126105606Y-75972741D01*
X126207339Y-76000000D01*
X126213554Y-76000000D01*
X125591351Y-76622200D01*
X125591352Y-76622201D01*
X125620577Y-76643434D01*
X125791678Y-76730616D01*
X125974315Y-76789959D01*
X126163985Y-76820000D01*
X126356015Y-76820000D01*
X126545684Y-76789959D01*
X126728321Y-76730616D01*
X126899419Y-76643436D01*
X126928646Y-76622201D01*
X126928646Y-76622200D01*
X126306447Y-76000000D01*
X126312661Y-76000000D01*
X126414394Y-75972741D01*
X126505606Y-75920080D01*
X126580080Y-75845606D01*
X126632741Y-75754394D01*
X126660000Y-75652661D01*
X126660000Y-75646446D01*
X127282200Y-76268646D01*
X127282201Y-76268646D01*
X127303436Y-76239419D01*
X127390616Y-76068319D01*
X127411805Y-76003108D01*
X127451242Y-75945433D01*
X127515600Y-75918234D01*
X127584447Y-75930148D01*
X127635923Y-75977392D01*
X127647667Y-76003108D01*
X127668916Y-76068505D01*
X127668917Y-76068506D01*
X127668918Y-76068509D01*
X127756135Y-76239681D01*
X127869055Y-76395102D01*
X128004898Y-76530945D01*
X128160319Y-76643865D01*
X128205041Y-76666652D01*
X128331493Y-76731083D01*
X128422845Y-76760764D01*
X128514199Y-76790447D01*
X128703945Y-76820500D01*
X128703946Y-76820500D01*
X128896054Y-76820500D01*
X128896055Y-76820500D01*
X129085801Y-76790447D01*
X129268509Y-76731082D01*
X129439681Y-76643865D01*
X129595102Y-76530945D01*
X129730945Y-76395102D01*
X129843865Y-76239681D01*
X129931082Y-76068509D01*
X129931304Y-76067827D01*
X129952069Y-76003919D01*
X129991506Y-75946243D01*
X130055864Y-75919044D01*
X130124711Y-75930958D01*
X130176187Y-75978202D01*
X130187931Y-76003919D01*
X130208915Y-76068504D01*
X130208918Y-76068509D01*
X130296135Y-76239681D01*
X130409055Y-76395102D01*
X130544898Y-76530945D01*
X130544903Y-76530949D01*
X130546031Y-76531912D01*
X130546343Y-76532390D01*
X130548343Y-76534390D01*
X130547922Y-76534810D01*
X130584224Y-76590419D01*
X130589500Y-76626203D01*
X130589500Y-76897770D01*
X130569815Y-76964809D01*
X130553181Y-76985451D01*
X130325451Y-77213181D01*
X130264128Y-77246666D01*
X130237770Y-77249500D01*
X124926076Y-77249500D01*
X124897242Y-77255234D01*
X124897243Y-77255235D01*
X124781093Y-77278339D01*
X124781083Y-77278342D01*
X124701081Y-77311479D01*
X124701082Y-77311480D01*
X124701080Y-77311481D01*
X124644505Y-77334916D01*
X124572918Y-77382749D01*
X124521582Y-77417049D01*
X124521579Y-77417052D01*
X121552508Y-80386122D01*
X121491185Y-80419607D01*
X121445429Y-80420914D01*
X121310227Y-80399500D01*
X121310222Y-80399500D01*
X121089778Y-80399500D01*
X121017201Y-80410995D01*
X120872047Y-80433985D01*
X120662396Y-80502103D01*
X120662393Y-80502104D01*
X120465974Y-80602187D01*
X120287641Y-80731752D01*
X120287636Y-80731756D01*
X120131756Y-80887636D01*
X120131752Y-80887641D01*
X120002187Y-81065974D01*
X119902104Y-81262393D01*
X119902103Y-81262396D01*
X119833985Y-81472047D01*
X119799500Y-81689778D01*
X119799500Y-81910221D01*
X119833985Y-82127952D01*
X119902103Y-82337603D01*
X119902104Y-82337606D01*
X120002187Y-82534025D01*
X120131752Y-82712358D01*
X120131756Y-82712363D01*
X120181928Y-82762535D01*
X120215413Y-82823858D01*
X120210429Y-82893550D01*
X120168557Y-82949483D01*
X120137581Y-82966398D01*
X120057669Y-82996203D01*
X120057664Y-82996206D01*
X119942455Y-83082452D01*
X119942452Y-83082455D01*
X119856206Y-83197664D01*
X119856202Y-83197671D01*
X119805908Y-83332517D01*
X119799501Y-83392116D01*
X119799500Y-83392135D01*
X119799500Y-85287870D01*
X119799501Y-85287876D01*
X119805908Y-85347483D01*
X119856202Y-85482328D01*
X119856206Y-85482335D01*
X119942452Y-85597544D01*
X119942455Y-85597547D01*
X120057664Y-85683793D01*
X120057671Y-85683797D01*
X120192517Y-85734091D01*
X120192516Y-85734091D01*
X120199444Y-85734835D01*
X120252127Y-85740500D01*
X122147872Y-85740499D01*
X122207483Y-85734091D01*
X122342331Y-85683796D01*
X122457546Y-85597546D01*
X122463496Y-85589597D01*
X122467250Y-85586786D01*
X122469209Y-85582521D01*
X122494956Y-85566045D01*
X122519427Y-85547726D01*
X122524108Y-85547391D01*
X122528061Y-85544862D01*
X122558626Y-85544921D01*
X122589118Y-85542740D01*
X122593236Y-85544988D01*
X122597931Y-85544998D01*
X122623619Y-85561578D01*
X122650442Y-85576224D01*
X122653784Y-85581048D01*
X122656635Y-85582888D01*
X122669320Y-85603469D01*
X122675658Y-85612616D01*
X122678204Y-85618220D01*
X122678342Y-85618913D01*
X122734916Y-85755495D01*
X122746970Y-85773535D01*
X122752583Y-85781936D01*
X122752586Y-85781942D01*
X122817046Y-85878414D01*
X122817052Y-85878421D01*
X123121584Y-86182952D01*
X123121586Y-86182954D01*
X123147125Y-86200017D01*
X123195270Y-86232186D01*
X123244505Y-86265084D01*
X123271057Y-86276082D01*
X123381088Y-86321659D01*
X123497241Y-86344763D01*
X123516468Y-86348587D01*
X123526081Y-86350500D01*
X123526082Y-86350500D01*
X123526083Y-86350500D01*
X123673918Y-86350500D01*
X132036101Y-86350500D01*
X132065541Y-86359144D01*
X132095528Y-86365668D01*
X132100543Y-86369422D01*
X132103140Y-86370185D01*
X132123782Y-86386819D01*
X132224782Y-86487819D01*
X132258267Y-86549142D01*
X132253283Y-86618834D01*
X132211411Y-86674767D01*
X132145947Y-86699184D01*
X132137101Y-86699500D01*
X117624500Y-86699500D01*
X117557461Y-86679815D01*
X117511706Y-86627011D01*
X117500500Y-86575500D01*
X117500500Y-77549778D01*
X119177000Y-77549778D01*
X119177000Y-77770221D01*
X119211485Y-77987952D01*
X119279603Y-78197603D01*
X119279604Y-78197606D01*
X119379687Y-78394025D01*
X119509252Y-78572358D01*
X119509256Y-78572363D01*
X119665136Y-78728243D01*
X119665141Y-78728247D01*
X119787964Y-78817482D01*
X119843478Y-78857815D01*
X119927954Y-78900858D01*
X120039893Y-78957895D01*
X120039896Y-78957896D01*
X120144721Y-78991955D01*
X120249549Y-79026015D01*
X120467278Y-79060500D01*
X120467279Y-79060500D01*
X120687721Y-79060500D01*
X120687722Y-79060500D01*
X120905451Y-79026015D01*
X121115106Y-78957895D01*
X121311522Y-78857815D01*
X121489865Y-78728242D01*
X121645742Y-78572365D01*
X121775315Y-78394022D01*
X121875395Y-78197606D01*
X121943515Y-77987951D01*
X121978000Y-77770222D01*
X121978000Y-77549778D01*
X121943515Y-77332049D01*
X121943514Y-77332047D01*
X121943514Y-77332044D01*
X121875396Y-77122396D01*
X121875395Y-77122393D01*
X121805618Y-76985451D01*
X121775315Y-76925978D01*
X121754821Y-76897770D01*
X121645747Y-76747641D01*
X121645743Y-76747636D01*
X121595183Y-76697076D01*
X121578570Y-76666652D01*
X121561819Y-76636304D01*
X121561838Y-76636010D01*
X121561698Y-76635753D01*
X121564169Y-76601194D01*
X121566486Y-76566591D01*
X121566660Y-76566355D01*
X121566682Y-76566061D01*
X121587426Y-76538350D01*
X121608102Y-76510467D01*
X121608438Y-76510282D01*
X121608554Y-76510128D01*
X121639002Y-76493412D01*
X121720717Y-76462509D01*
X121834687Y-76377190D01*
X121834690Y-76377187D01*
X121920850Y-76262093D01*
X121920854Y-76262086D01*
X121971096Y-76127379D01*
X121971098Y-76127372D01*
X121977499Y-76067844D01*
X121977500Y-76067827D01*
X121977500Y-75370000D01*
X120952778Y-75370000D01*
X120996833Y-75293694D01*
X121027500Y-75179244D01*
X121027500Y-75060756D01*
X120996833Y-74946306D01*
X120952778Y-74870000D01*
X121977500Y-74870000D01*
X121977500Y-74172172D01*
X121977499Y-74172155D01*
X121971098Y-74112627D01*
X121971096Y-74112620D01*
X121920854Y-73977913D01*
X121920850Y-73977906D01*
X121834690Y-73862812D01*
X121834687Y-73862809D01*
X121719593Y-73776649D01*
X121719586Y-73776645D01*
X121584879Y-73726403D01*
X121584872Y-73726401D01*
X121525344Y-73720000D01*
X120827500Y-73720000D01*
X120827500Y-74744722D01*
X120751194Y-74700667D01*
X120636744Y-74670000D01*
X120518256Y-74670000D01*
X120403806Y-74700667D01*
X120327500Y-74744722D01*
X120327500Y-73720000D01*
X119629655Y-73720000D01*
X119570127Y-73726401D01*
X119570120Y-73726403D01*
X119435413Y-73776645D01*
X119435406Y-73776649D01*
X119320312Y-73862809D01*
X119320309Y-73862812D01*
X119234149Y-73977906D01*
X119234145Y-73977913D01*
X119183903Y-74112620D01*
X119183901Y-74112627D01*
X119177500Y-74172155D01*
X119177500Y-74870000D01*
X120202222Y-74870000D01*
X120158167Y-74946306D01*
X120127500Y-75060756D01*
X120127500Y-75179244D01*
X120158167Y-75293694D01*
X120202222Y-75370000D01*
X119177500Y-75370000D01*
X119177500Y-76067844D01*
X119183901Y-76127372D01*
X119183903Y-76127379D01*
X119234145Y-76262086D01*
X119234149Y-76262093D01*
X119320309Y-76377187D01*
X119320312Y-76377190D01*
X119435406Y-76463350D01*
X119435413Y-76463354D01*
X119515468Y-76493213D01*
X119571402Y-76535084D01*
X119595819Y-76600549D01*
X119580967Y-76668822D01*
X119559817Y-76697075D01*
X119509256Y-76747636D01*
X119509252Y-76747641D01*
X119379687Y-76925974D01*
X119279604Y-77122393D01*
X119279603Y-77122396D01*
X119211486Y-77332044D01*
X119211485Y-77332047D01*
X119211485Y-77332049D01*
X119198022Y-77417049D01*
X119177000Y-77549778D01*
X117500500Y-77549778D01*
X117500500Y-72624500D01*
X117520185Y-72557461D01*
X117572989Y-72511706D01*
X117624500Y-72500500D01*
X141575500Y-72500500D01*
X141642539Y-72520185D01*
G37*
%TD.AperFunction*%
%TD*%
D19*
%TO.C,J1*%
X139800000Y-77860000D03*
D20*
X139800000Y-80400000D03*
X139800000Y-82940000D03*
%TD*%
D21*
%TO.C,D1*%
X121200000Y-84340000D03*
D22*
X121200000Y-81800000D03*
%TD*%
D21*
%TO.C,D3*%
X120577500Y-75120000D03*
D22*
X120577500Y-77660000D03*
%TD*%
D23*
%TO.C,RV1*%
X131340000Y-75600000D03*
X128800000Y-75600000D03*
X126260000Y-75600000D03*
%TD*%
D24*
%TO.P,U2,1*%
%TO.N,/Out*%
X126200000Y-79400000D03*
%TO.P,U2,2,-*%
%TO.N,/LM393 -*%
X126200000Y-80670000D03*
%TO.P,U2,3,+*%
%TO.N,/LM393 +*%
X126200000Y-81940000D03*
%TO.P,U2,4,V-*%
%TO.N,GND*%
X126200000Y-83210000D03*
%TO.P,U2,5,+*%
%TO.N,unconnected-(U2B-+-Pad5)*%
X131150000Y-83210000D03*
%TO.P,U2,6,-*%
%TO.N,unconnected-(U2B---Pad6)*%
X131150000Y-81940000D03*
%TO.P,U2,7*%
%TO.N,unconnected-(U2-Pad7)*%
X131150000Y-80670000D03*
%TO.P,U2,8,V+*%
%TO.N,+5V*%
X131150000Y-79400000D03*
%TD*%
D11*
%TO.P,J1,1,Pin_1*%
%TO.N,+5V*%
X139800000Y-77860000D03*
D12*
%TO.P,J1,2,Pin_2*%
%TO.N,GND*%
X139800000Y-80400000D03*
%TO.P,J1,3,Pin_3*%
%TO.N,/Out*%
X139800000Y-82940000D03*
%TD*%
D25*
%TO.P,R4,1*%
%TO.N,+5V*%
X134400000Y-85625000D03*
%TO.P,R4,2*%
%TO.N,/Out*%
X134400000Y-83975000D03*
%TD*%
D13*
%TO.P,D1,1,K*%
%TO.N,Net-(D1-K)*%
X121200000Y-84340000D03*
D14*
%TO.P,D1,2,A*%
%TO.N,+5V*%
X121200000Y-81800000D03*
%TD*%
D13*
%TO.P,D3,1,K*%
%TO.N,GND*%
X120577500Y-75120000D03*
D14*
%TO.P,D3,2,A*%
%TO.N,/LM393 +*%
X120577500Y-77660000D03*
%TD*%
D15*
%TO.P,RV1,1,1*%
%TO.N,+5V*%
X131340000Y-75600000D03*
%TO.P,RV1,2,2*%
%TO.N,/LM393 -*%
X128800000Y-75600000D03*
%TO.P,RV1,3,3*%
%TO.N,GND*%
X126260000Y-75600000D03*
%TD*%
D26*
%TO.P,R5,1*%
%TO.N,Net-(D4-K)*%
X137000000Y-83800000D03*
%TO.P,R5,2*%
%TO.N,/Out*%
X137000000Y-85450000D03*
%TD*%
D27*
%TO.P,R3,1*%
%TO.N,+5V*%
X132225000Y-85600000D03*
%TO.P,R3,2*%
%TO.N,/LM393 +*%
X130575000Y-85600000D03*
%TD*%
D28*
%TO.P,R1,1*%
%TO.N,Net-(D1-K)*%
X125550000Y-85200000D03*
%TO.P,R1,2*%
%TO.N,GND*%
X127200000Y-85200000D03*
%TD*%
D29*
%TO.P,R2,1*%
%TO.N,+5V*%
X136400000Y-79025000D03*
%TO.P,R2,2*%
%TO.N,Net-(D2-A)*%
X136400000Y-77200000D03*
%TD*%
D30*
%TO.P,D4,1,K*%
%TO.N,Net-(D4-K)*%
X136400000Y-82175000D03*
%TO.P,D4,2,A*%
%TO.N,+5V*%
X136400000Y-80600000D03*
%TD*%
D31*
%TO.P,C1,1*%
%TO.N,+5V*%
X134200000Y-75950000D03*
%TO.P,C1,2*%
%TO.N,GND*%
X134200000Y-74050000D03*
%TD*%
D32*
%TO.P,D2,1,K*%
%TO.N,GND*%
X136800000Y-74025000D03*
%TO.P,D2,2,A*%
%TO.N,Net-(D2-A)*%
X136800000Y-75600000D03*
%TD*%
D31*
%TO.P,C2,1*%
%TO.N,/LM393 +*%
X134200000Y-81900000D03*
%TO.P,C2,2*%
%TO.N,GND*%
X134200000Y-80000000D03*
%TD*%
D16*
%TO.N,+5V*%
X133148331Y-86350000D03*
%TO.N,GND*%
X133400000Y-78800000D03*
%TO.N,/Out*%
X128000000Y-79200000D03*
X133200000Y-84000000D03*
%TD*%
%TO.N,+5V*%
D17*
X136400000Y-79025000D02*
X138635000Y-79025000D01*
X134200000Y-75950000D02*
X134800000Y-76550000D01*
X135000000Y-79000000D02*
X135600000Y-79000000D01*
X135625000Y-79025000D02*
X136400000Y-79025000D01*
X132225000Y-86225000D02*
X132225000Y-85600000D01*
X132225000Y-85600000D02*
X134375000Y-85600000D01*
X131340000Y-75600000D02*
X133850000Y-75600000D01*
X133148331Y-86350000D02*
X132350000Y-86350000D01*
X135600000Y-79000000D02*
X135625000Y-79025000D01*
X131150000Y-79400000D02*
X131150000Y-75790000D01*
X134375000Y-85600000D02*
X134400000Y-85625000D01*
X133850000Y-75600000D02*
X134200000Y-75950000D01*
X138635000Y-79025000D02*
X139800000Y-77860000D01*
X136400000Y-79025000D02*
X136400000Y-80600000D01*
X132350000Y-86350000D02*
X132225000Y-86225000D01*
X131150000Y-75790000D02*
X131340000Y-75600000D01*
X134800000Y-76550000D02*
X134800000Y-78800000D01*
X134800000Y-78800000D02*
X135000000Y-79000000D01*
%TO.N,GND*%
X123400000Y-75400000D02*
X121200000Y-75400000D01*
X123800000Y-75800000D02*
X123400000Y-75400000D01*
X127200000Y-85200000D02*
X127200000Y-84210000D01*
X125225001Y-83210000D02*
X123800000Y-81784999D01*
X134200000Y-79600000D02*
X133400000Y-78800000D01*
X121200000Y-75400000D02*
X120920000Y-75120000D01*
X120920000Y-75120000D02*
X120577500Y-75120000D01*
X136775000Y-74050000D02*
X136800000Y-74025000D01*
X123800000Y-81784999D02*
X123800000Y-75800000D01*
X126260000Y-75600000D02*
X126260000Y-74340000D01*
X127200000Y-84210000D02*
X126200000Y-83210000D01*
X127400000Y-73200000D02*
X133350000Y-73200000D01*
X134200000Y-74050000D02*
X136775000Y-74050000D01*
X126260000Y-74340000D02*
X127400000Y-73200000D01*
X134200000Y-80000000D02*
X134200000Y-79600000D01*
X126200000Y-83210000D02*
X125225001Y-83210000D01*
X133350000Y-73200000D02*
X134200000Y-74050000D01*
%TO.N,/LM393 +*%
D18*
X127526000Y-83228322D02*
X127697678Y-83400000D01*
X126757678Y-81800000D02*
X127200000Y-81800000D01*
X130575000Y-84225000D02*
X130939000Y-83861000D01*
X130200000Y-84000000D02*
X130200000Y-85225000D01*
X132476000Y-82124000D02*
X132700000Y-81900000D01*
X118800000Y-74000000D02*
X119200000Y-73600000D01*
X127697678Y-83400000D02*
X129600000Y-83400000D01*
X126200000Y-81940000D02*
X126617678Y-81940000D01*
X132476000Y-83571678D02*
X132476000Y-82124000D01*
X130200000Y-85225000D02*
X130575000Y-85600000D01*
X120577500Y-77660000D02*
X119260000Y-77660000D01*
X130939000Y-83861000D02*
X132186678Y-83861000D01*
X130575000Y-85600000D02*
X130575000Y-84225000D01*
X124400000Y-73600000D02*
X124800000Y-74000000D01*
X119260000Y-77660000D02*
X118800000Y-77200000D01*
X124800000Y-81514999D02*
X125225001Y-81940000D01*
X119200000Y-73600000D02*
X124400000Y-73600000D01*
X118800000Y-77200000D02*
X118800000Y-74000000D01*
X126617678Y-81940000D02*
X126757678Y-81800000D01*
X129600000Y-83400000D02*
X130200000Y-84000000D01*
X127526000Y-82126000D02*
X127526000Y-83228322D01*
X132186678Y-83861000D02*
X132476000Y-83571678D01*
X132700000Y-81900000D02*
X134200000Y-81900000D01*
X124800000Y-74000000D02*
X124800000Y-81514999D01*
X125225001Y-81940000D02*
X126200000Y-81940000D01*
X127200000Y-81800000D02*
X127526000Y-82126000D01*
%TO.N,Net-(D1-K)*%
X121200000Y-84340000D02*
X124690000Y-84340000D01*
X124690000Y-84340000D02*
X125550000Y-85200000D01*
%TO.N,Net-(D2-A)*%
X136800000Y-76800000D02*
X136400000Y-77200000D01*
X136800000Y-75600000D02*
X136800000Y-76800000D01*
%TO.N,Net-(D4-K)*%
X136400000Y-83200000D02*
X137000000Y-83800000D01*
X136400000Y-82175000D02*
X136400000Y-83200000D01*
%TO.N,/Out*%
X133200000Y-84000000D02*
X134375000Y-84000000D01*
X135825000Y-85400000D02*
X136950000Y-85400000D01*
X126200000Y-79400000D02*
X127800000Y-79400000D01*
X137290000Y-85450000D02*
X139800000Y-82940000D01*
X136950000Y-85400000D02*
X137000000Y-85450000D01*
X137000000Y-85450000D02*
X137290000Y-85450000D01*
X134400000Y-83975000D02*
X135825000Y-85400000D01*
X127800000Y-79400000D02*
X128000000Y-79200000D01*
X134375000Y-84000000D02*
X134400000Y-83975000D01*
%TO.N,/LM393 -*%
X127287678Y-80000000D02*
X129000000Y-80000000D01*
X126200000Y-80670000D02*
X126617678Y-80670000D01*
X129400000Y-76200000D02*
X128800000Y-75600000D01*
X126617678Y-80670000D02*
X127287678Y-80000000D01*
X129400000Y-79600000D02*
X129400000Y-76200000D01*
X129000000Y-80000000D02*
X129400000Y-79600000D01*
%TD*%
%TA.AperFunction,Conductor*%
%TO.N,GND*%
G36*
X141642539Y-72520185D02*
G01*
X141688294Y-72572989D01*
X141699500Y-72624500D01*
X141699500Y-86575500D01*
X141679815Y-86642539D01*
X141627011Y-86688294D01*
X141575500Y-86699500D01*
X135027258Y-86699500D01*
X134960219Y-86679815D01*
X134914464Y-86627011D01*
X134904520Y-86557853D01*
X134933545Y-86494297D01*
X134963108Y-86469383D01*
X134964604Y-86468478D01*
X134964606Y-86468478D01*
X135110185Y-86380472D01*
X135230472Y-86260185D01*
X135318478Y-86114606D01*
X135339098Y-86048430D01*
X135377834Y-85990285D01*
X135441859Y-85962310D01*
X135510844Y-85973391D01*
X135515947Y-85975969D01*
X135516866Y-85976460D01*
X135516873Y-85976465D01*
X135516879Y-85976467D01*
X135516882Y-85976469D01*
X135550237Y-85990285D01*
X135635256Y-86025501D01*
X135635260Y-86025501D01*
X135635261Y-86025502D01*
X135760928Y-86050500D01*
X135760931Y-86050500D01*
X136083480Y-86050500D01*
X136150519Y-86070185D01*
X136171161Y-86086819D01*
X136289811Y-86205469D01*
X136289813Y-86205470D01*
X136289815Y-86205472D01*
X136435394Y-86293478D01*
X136597804Y-86344086D01*
X136668384Y-86350500D01*
X136668387Y-86350500D01*
X137331613Y-86350500D01*
X137331616Y-86350500D01*
X137402196Y-86344086D01*
X137564606Y-86293478D01*
X137710185Y-86205472D01*
X137830472Y-86085185D01*
X137918478Y-85939606D01*
X137969086Y-85777196D01*
X137973653Y-85726940D01*
X137999322Y-85661960D01*
X138009454Y-85650491D01*
X139369289Y-84290655D01*
X139430610Y-84257172D01*
X139478754Y-84257685D01*
X139478945Y-84256484D01*
X139560778Y-84269445D01*
X139693713Y-84290500D01*
X139693714Y-84290500D01*
X139906286Y-84290500D01*
X139906287Y-84290500D01*
X140116243Y-84257246D01*
X140318412Y-84191557D01*
X140507816Y-84095051D01*
X140569136Y-84050500D01*
X140679786Y-83970109D01*
X140679788Y-83970106D01*
X140679792Y-83970104D01*
X140830104Y-83819792D01*
X140830106Y-83819788D01*
X140830109Y-83819786D01*
X140955048Y-83647820D01*
X140955047Y-83647820D01*
X140955051Y-83647816D01*
X141051557Y-83458412D01*
X141117246Y-83256243D01*
X141150500Y-83046287D01*
X141150500Y-82833713D01*
X141117246Y-82623757D01*
X141051557Y-82421588D01*
X140955051Y-82232184D01*
X140955049Y-82232181D01*
X140955048Y-82232179D01*
X140830109Y-82060213D01*
X140679786Y-81909890D01*
X140507817Y-81784949D01*
X140498504Y-81780204D01*
X140447707Y-81732230D01*
X140430912Y-81664409D01*
X140453449Y-81598274D01*
X140498507Y-81559232D01*
X140507555Y-81554622D01*
X140561716Y-81515270D01*
X140561717Y-81515270D01*
X139929408Y-80882962D01*
X139992993Y-80865925D01*
X140107007Y-80800099D01*
X140200099Y-80707007D01*
X140265925Y-80592993D01*
X140282962Y-80529409D01*
X140915270Y-81161717D01*
X140915270Y-81161716D01*
X140954622Y-81107554D01*
X141051095Y-80918217D01*
X141116757Y-80716130D01*
X141116757Y-80716127D01*
X141150000Y-80506246D01*
X141150000Y-80293753D01*
X141116757Y-80083872D01*
X141116757Y-80083869D01*
X141051095Y-79881782D01*
X140954624Y-79692449D01*
X140915270Y-79638282D01*
X140915269Y-79638282D01*
X140282962Y-80270590D01*
X140265925Y-80207007D01*
X140200099Y-80092993D01*
X140107007Y-79999901D01*
X139992993Y-79934075D01*
X139929408Y-79917037D01*
X140599627Y-79246818D01*
X140660950Y-79213333D01*
X140687308Y-79210499D01*
X140697871Y-79210499D01*
X140697872Y-79210499D01*
X140757483Y-79204091D01*
X140892331Y-79153796D01*
X141007546Y-79067546D01*
X141093796Y-78952331D01*
X141144091Y-78817483D01*
X141150500Y-78757873D01*
X141150499Y-76962128D01*
X141144091Y-76902517D01*
X141138489Y-76887498D01*
X141093797Y-76767671D01*
X141093793Y-76767664D01*
X141007547Y-76652455D01*
X141007544Y-76652452D01*
X140892335Y-76566206D01*
X140892328Y-76566202D01*
X140757482Y-76515908D01*
X140757483Y-76515908D01*
X140697883Y-76509501D01*
X140697881Y-76509500D01*
X140697873Y-76509500D01*
X140697864Y-76509500D01*
X138902129Y-76509500D01*
X138902123Y-76509501D01*
X138842516Y-76515908D01*
X138707671Y-76566202D01*
X138707664Y-76566206D01*
X138592455Y-76652452D01*
X138592452Y-76652455D01*
X138506206Y-76767664D01*
X138506202Y-76767671D01*
X138455908Y-76902517D01*
X138451879Y-76939998D01*
X138449501Y-76962123D01*
X138449500Y-76962135D01*
X138449500Y-78097768D01*
X138440856Y-78127204D01*
X138434333Y-78157194D01*
X138430577Y-78162210D01*
X138429815Y-78164807D01*
X138413182Y-78185448D01*
X138360451Y-78238180D01*
X138299128Y-78271666D01*
X138272769Y-78274500D01*
X137474730Y-78274500D01*
X137407691Y-78254815D01*
X137387049Y-78238181D01*
X137349049Y-78200181D01*
X137315564Y-78138858D01*
X137320548Y-78069166D01*
X137349049Y-78024819D01*
X137385917Y-77987951D01*
X137442712Y-77931156D01*
X137534814Y-77781834D01*
X137589999Y-77615297D01*
X137600500Y-77512509D01*
X137600499Y-76887492D01*
X137600225Y-76884814D01*
X137589999Y-76784703D01*
X137589998Y-76784700D01*
X137581878Y-76760196D01*
X137534814Y-76618166D01*
X137518526Y-76591758D01*
X137486788Y-76540302D01*
X137468348Y-76472910D01*
X137489271Y-76406246D01*
X137504646Y-76387524D01*
X137505385Y-76386784D01*
X137505391Y-76386781D01*
X137624281Y-76267891D01*
X137712549Y-76124787D01*
X137765436Y-75965185D01*
X137775500Y-75866674D01*
X137775500Y-75333326D01*
X137765436Y-75234815D01*
X137712549Y-75075213D01*
X137712545Y-75075207D01*
X137712544Y-75075204D01*
X137624283Y-74932112D01*
X137624280Y-74932108D01*
X137592000Y-74899828D01*
X137558515Y-74838505D01*
X137563499Y-74768813D01*
X137592000Y-74724466D01*
X137623885Y-74692580D01*
X137712091Y-74549577D01*
X137712093Y-74549572D01*
X137764942Y-74390083D01*
X137774999Y-74291650D01*
X137775000Y-74291637D01*
X137775000Y-74275000D01*
X135825001Y-74275000D01*
X135825001Y-74291652D01*
X135835056Y-74390083D01*
X135887906Y-74549572D01*
X135887908Y-74549577D01*
X135976114Y-74692580D01*
X136008000Y-74724467D01*
X136041485Y-74785791D01*
X136036499Y-74855482D01*
X136008000Y-74899827D01*
X135975719Y-74932107D01*
X135975716Y-74932112D01*
X135887455Y-75075204D01*
X135887451Y-75075213D01*
X135834564Y-75234815D01*
X135834564Y-75234816D01*
X135834563Y-75234816D01*
X135824500Y-75333318D01*
X135824500Y-75866681D01*
X135834563Y-75965183D01*
X135834564Y-75965185D01*
X135847130Y-76003108D01*
X135861229Y-76045653D01*
X135861528Y-76054346D01*
X135865456Y-76062109D01*
X135862710Y-76088732D01*
X135863631Y-76115481D01*
X135859182Y-76122956D01*
X135858290Y-76131610D01*
X135841586Y-76152523D01*
X135827899Y-76175523D01*
X135818971Y-76180838D01*
X135814686Y-76186204D01*
X135784402Y-76201421D01*
X135783195Y-76202140D01*
X135782751Y-76202289D01*
X135630666Y-76252686D01*
X135627225Y-76254807D01*
X135616695Y-76258364D01*
X135588366Y-76259499D01*
X135560341Y-76263754D01*
X135553914Y-76260880D01*
X135546881Y-76261162D01*
X135522435Y-76246801D01*
X135496559Y-76235229D01*
X135491019Y-76228346D01*
X135486637Y-76225772D01*
X135482725Y-76218042D01*
X135467660Y-76199325D01*
X135465082Y-76194501D01*
X135446397Y-76166537D01*
X135425519Y-76099859D01*
X135425499Y-76097646D01*
X135425499Y-75649998D01*
X135425498Y-75649981D01*
X135414999Y-75547203D01*
X135414998Y-75547200D01*
X135392760Y-75480090D01*
X135359814Y-75380666D01*
X135267712Y-75231344D01*
X135143656Y-75107288D01*
X135140342Y-75105243D01*
X135138546Y-75103248D01*
X135137989Y-75102807D01*
X135138064Y-75102711D01*
X135093618Y-75053297D01*
X135082397Y-74984334D01*
X135110240Y-74920252D01*
X135140348Y-74894165D01*
X135143342Y-74892318D01*
X135267315Y-74768345D01*
X135359356Y-74619124D01*
X135359358Y-74619119D01*
X135414505Y-74452697D01*
X135414506Y-74452690D01*
X135424999Y-74349986D01*
X135425000Y-74349973D01*
X135425000Y-74300000D01*
X132975001Y-74300000D01*
X132975001Y-74349986D01*
X132985494Y-74452697D01*
X133040641Y-74619119D01*
X133040646Y-74619130D01*
X133066104Y-74660403D01*
X133084545Y-74727795D01*
X133063623Y-74794459D01*
X133009981Y-74839229D01*
X132960566Y-74849500D01*
X132366204Y-74849500D01*
X132299165Y-74829815D01*
X132274469Y-74808263D01*
X132274390Y-74808343D01*
X132273226Y-74807179D01*
X132271923Y-74806042D01*
X132270949Y-74804902D01*
X132135104Y-74669057D01*
X132135102Y-74669055D01*
X131979681Y-74556135D01*
X131966810Y-74549577D01*
X131808506Y-74468916D01*
X131625802Y-74409553D01*
X131502873Y-74390083D01*
X131436055Y-74379500D01*
X131243945Y-74379500D01*
X131180696Y-74389517D01*
X131054197Y-74409553D01*
X130871493Y-74468916D01*
X130700318Y-74556135D01*
X130670502Y-74577798D01*
X130544898Y-74669055D01*
X130544896Y-74669057D01*
X130544895Y-74669057D01*
X130409057Y-74804895D01*
X130409057Y-74804896D01*
X130409055Y-74804898D01*
X130390952Y-74829815D01*
X130296135Y-74960318D01*
X130208916Y-75131493D01*
X130187931Y-75196081D01*
X130148494Y-75253756D01*
X130084135Y-75280955D01*
X130015289Y-75269041D01*
X129963813Y-75221797D01*
X129952069Y-75196081D01*
X129931083Y-75131493D01*
X129902402Y-75075204D01*
X129843865Y-74960319D01*
X129730945Y-74804898D01*
X129595102Y-74669055D01*
X129439681Y-74556135D01*
X129426810Y-74549577D01*
X129268506Y-74468916D01*
X129085802Y-74409553D01*
X128962873Y-74390083D01*
X128896055Y-74379500D01*
X128703945Y-74379500D01*
X128640696Y-74389517D01*
X128514197Y-74409553D01*
X128331493Y-74468916D01*
X128160318Y-74556135D01*
X128130502Y-74577798D01*
X128004898Y-74669055D01*
X128004896Y-74669057D01*
X128004895Y-74669057D01*
X127869057Y-74804895D01*
X127869057Y-74804896D01*
X127869055Y-74804898D01*
X127850952Y-74829815D01*
X127756135Y-74960318D01*
X127668917Y-75131492D01*
X127647667Y-75196892D01*
X127608229Y-75254567D01*
X127543870Y-75281765D01*
X127475024Y-75269850D01*
X127423548Y-75222605D01*
X127411805Y-75196891D01*
X127390616Y-75131680D01*
X127303434Y-74960577D01*
X127282201Y-74931352D01*
X127282200Y-74931351D01*
X126660000Y-75553552D01*
X126660000Y-75547339D01*
X126632741Y-75445606D01*
X126580080Y-75354394D01*
X126505606Y-75279920D01*
X126414394Y-75227259D01*
X126312661Y-75200000D01*
X126306444Y-75200000D01*
X126928646Y-74577798D01*
X126899415Y-74556561D01*
X126728321Y-74469383D01*
X126545684Y-74410040D01*
X126356015Y-74380000D01*
X126163985Y-74380000D01*
X125974315Y-74410040D01*
X125791678Y-74469384D01*
X125630795Y-74551358D01*
X125562125Y-74564254D01*
X125497385Y-74537977D01*
X125457128Y-74480871D01*
X125450500Y-74440873D01*
X125450500Y-73935928D01*
X125425502Y-73810261D01*
X125425501Y-73810260D01*
X125425501Y-73810256D01*
X125400547Y-73750013D01*
X132975000Y-73750013D01*
X132975000Y-73800000D01*
X133950000Y-73800000D01*
X134450000Y-73800000D01*
X135424999Y-73800000D01*
X135424999Y-73758349D01*
X135825000Y-73758349D01*
X135825000Y-73775000D01*
X136550000Y-73775000D01*
X137050000Y-73775000D01*
X137774999Y-73775000D01*
X137774999Y-73758364D01*
X137774998Y-73758347D01*
X137764943Y-73659916D01*
X137712093Y-73500427D01*
X137712091Y-73500422D01*
X137623885Y-73357419D01*
X137505080Y-73238614D01*
X137362077Y-73150408D01*
X137362072Y-73150406D01*
X137202583Y-73097557D01*
X137104150Y-73087500D01*
X137050000Y-73087500D01*
X137050000Y-73775000D01*
X136550000Y-73775000D01*
X136550000Y-73087500D01*
X136549999Y-73087499D01*
X136495864Y-73087500D01*
X136495847Y-73087501D01*
X136397415Y-73097557D01*
X136237927Y-73150406D01*
X136237922Y-73150408D01*
X136094919Y-73238614D01*
X135976114Y-73357419D01*
X135887908Y-73500422D01*
X135887906Y-73500427D01*
X135835057Y-73659916D01*
X135825000Y-73758349D01*
X135424999Y-73758349D01*
X135424999Y-73750028D01*
X135424998Y-73750013D01*
X135414505Y-73647302D01*
X135359358Y-73480880D01*
X135359356Y-73480875D01*
X135267315Y-73331654D01*
X135143345Y-73207684D01*
X134994124Y-73115643D01*
X134994119Y-73115641D01*
X134827697Y-73060494D01*
X134827690Y-73060493D01*
X134724986Y-73050000D01*
X134450000Y-73050000D01*
X134450000Y-73800000D01*
X133950000Y-73800000D01*
X133950000Y-73050000D01*
X133675029Y-73050000D01*
X133675012Y-73050001D01*
X133572302Y-73060494D01*
X133405880Y-73115641D01*
X133405875Y-73115643D01*
X133256654Y-73207684D01*
X133132684Y-73331654D01*
X133040643Y-73480875D01*
X133040641Y-73480880D01*
X132985494Y-73647302D01*
X132985493Y-73647309D01*
X132975000Y-73750013D01*
X125400547Y-73750013D01*
X125376465Y-73691873D01*
X125357887Y-73664069D01*
X125352938Y-73656662D01*
X125305277Y-73585331D01*
X125305271Y-73585324D01*
X124814673Y-73094726D01*
X124814669Y-73094723D01*
X124708127Y-73023535D01*
X124589744Y-72974499D01*
X124589738Y-72974497D01*
X124464071Y-72949500D01*
X124464069Y-72949500D01*
X119135931Y-72949500D01*
X119135929Y-72949500D01*
X119010261Y-72974497D01*
X119010255Y-72974499D01*
X118891870Y-73023535D01*
X118785331Y-73094722D01*
X118785324Y-73094728D01*
X118294726Y-73585326D01*
X118294723Y-73585331D01*
X118253312Y-73647309D01*
X118242114Y-73664068D01*
X118242112Y-73664070D01*
X118223539Y-73691864D01*
X118223533Y-73691875D01*
X118174499Y-73810255D01*
X118174497Y-73810261D01*
X118149500Y-73935928D01*
X118149500Y-73935931D01*
X118149500Y-77264069D01*
X118166966Y-77351873D01*
X118174499Y-77389744D01*
X118223534Y-77508125D01*
X118294726Y-77614673D01*
X118845327Y-78165274D01*
X118922814Y-78217049D01*
X118922813Y-78217049D01*
X118944631Y-78231626D01*
X118951873Y-78236465D01*
X119070256Y-78285501D01*
X119070260Y-78285501D01*
X119070261Y-78285502D01*
X119195928Y-78310500D01*
X119195931Y-78310500D01*
X119261141Y-78310500D01*
X119328180Y-78330185D01*
X119371626Y-78378205D01*
X119379687Y-78394026D01*
X119509252Y-78572358D01*
X119509256Y-78572363D01*
X119665136Y-78728243D01*
X119665141Y-78728247D01*
X119787964Y-78817482D01*
X119843478Y-78857815D01*
X119960902Y-78917646D01*
X120039893Y-78957895D01*
X120039896Y-78957896D01*
X120134993Y-78988794D01*
X120249549Y-79026015D01*
X120467278Y-79060500D01*
X120467279Y-79060500D01*
X120687721Y-79060500D01*
X120687722Y-79060500D01*
X120905451Y-79026015D01*
X121115106Y-78957895D01*
X121311522Y-78857815D01*
X121489865Y-78728242D01*
X121645742Y-78572365D01*
X121775315Y-78394022D01*
X121875395Y-78197606D01*
X121943515Y-77987951D01*
X121978000Y-77770222D01*
X121978000Y-77549778D01*
X121943515Y-77332049D01*
X121875395Y-77122394D01*
X121875395Y-77122393D01*
X121824744Y-77022987D01*
X121775315Y-76925978D01*
X121747358Y-76887498D01*
X121645747Y-76747641D01*
X121645743Y-76747636D01*
X121595183Y-76697076D01*
X121561698Y-76635753D01*
X121566682Y-76566061D01*
X121608554Y-76510128D01*
X121639531Y-76493213D01*
X121719586Y-76463354D01*
X121719593Y-76463350D01*
X121834687Y-76377190D01*
X121834690Y-76377187D01*
X121920850Y-76262093D01*
X121920854Y-76262086D01*
X121971096Y-76127379D01*
X121971098Y-76127372D01*
X121977499Y-76067844D01*
X121977500Y-76067827D01*
X121977500Y-75370000D01*
X120952778Y-75370000D01*
X120996833Y-75293694D01*
X121027500Y-75179244D01*
X121027500Y-75060756D01*
X120996833Y-74946306D01*
X120952778Y-74870000D01*
X121977500Y-74870000D01*
X121977500Y-74374500D01*
X121997185Y-74307461D01*
X122049989Y-74261706D01*
X122101500Y-74250500D01*
X124025500Y-74250500D01*
X124092539Y-74270185D01*
X124138294Y-74322989D01*
X124149500Y-74374500D01*
X124149500Y-81579069D01*
X124160004Y-81631872D01*
X124160004Y-81631874D01*
X124174497Y-81704735D01*
X124174499Y-81704743D01*
X124221359Y-81817874D01*
X124223535Y-81823126D01*
X124281508Y-81909890D01*
X124294726Y-81929672D01*
X124294727Y-81929673D01*
X124667853Y-82302797D01*
X124719725Y-82354669D01*
X124810332Y-82445276D01*
X124827116Y-82456490D01*
X124834783Y-82463764D01*
X124841152Y-82474732D01*
X124851794Y-82485974D01*
X124852142Y-82485705D01*
X124854879Y-82489234D01*
X124856169Y-82490597D01*
X124856919Y-82491865D01*
X124856921Y-82491867D01*
X124861705Y-82498035D01*
X124859371Y-82499844D01*
X124886210Y-82548995D01*
X124881226Y-82618687D01*
X124860470Y-82651021D01*
X124862097Y-82652283D01*
X124857313Y-82658449D01*
X124773718Y-82799801D01*
X124727899Y-82957513D01*
X124727704Y-82959998D01*
X124727705Y-82960000D01*
X126076000Y-82960000D01*
X126143039Y-82979685D01*
X126188794Y-83032489D01*
X126200000Y-83084000D01*
X126200000Y-83210000D01*
X126326000Y-83210000D01*
X126393039Y-83229685D01*
X126438794Y-83282489D01*
X126450000Y-83334000D01*
X126450000Y-84010000D01*
X126768688Y-84010000D01*
X126835727Y-84029685D01*
X126881482Y-84082489D01*
X126891426Y-84151647D01*
X126862401Y-84215203D01*
X126805579Y-84252385D01*
X126710603Y-84281981D01*
X126565122Y-84369927D01*
X126565121Y-84369928D01*
X126463035Y-84472015D01*
X126401712Y-84505500D01*
X126332020Y-84500516D01*
X126287673Y-84472015D01*
X126185188Y-84369530D01*
X126052978Y-84289606D01*
X126039606Y-84281522D01*
X125946098Y-84252384D01*
X125887953Y-84213648D01*
X125859979Y-84149623D01*
X125871060Y-84080638D01*
X125917679Y-84028595D01*
X125936868Y-84023131D01*
X125950000Y-84010000D01*
X125950000Y-83460000D01*
X124727705Y-83460000D01*
X124727704Y-83460001D01*
X124727899Y-83462488D01*
X124727900Y-83462494D01*
X124747776Y-83530905D01*
X124747577Y-83600774D01*
X124709635Y-83659444D01*
X124645996Y-83688288D01*
X124628700Y-83689500D01*
X122724499Y-83689500D01*
X122657460Y-83669815D01*
X122611705Y-83617011D01*
X122600499Y-83565500D01*
X122600499Y-83392129D01*
X122600498Y-83392123D01*
X122600497Y-83392116D01*
X122594875Y-83339811D01*
X122594091Y-83332516D01*
X122543797Y-83197671D01*
X122543793Y-83197664D01*
X122457547Y-83082455D01*
X122457544Y-83082452D01*
X122342335Y-82996206D01*
X122342328Y-82996202D01*
X122262419Y-82966398D01*
X122206485Y-82924527D01*
X122182068Y-82859062D01*
X122196920Y-82790789D01*
X122218069Y-82762537D01*
X122268242Y-82712365D01*
X122397815Y-82534022D01*
X122497895Y-82337606D01*
X122566015Y-82127951D01*
X122600500Y-81910222D01*
X122600500Y-81689778D01*
X122566015Y-81472049D01*
X122514277Y-81312812D01*
X122497896Y-81262396D01*
X122497895Y-81262393D01*
X122463237Y-81194375D01*
X122397815Y-81065978D01*
X122293623Y-80922569D01*
X122268247Y-80887641D01*
X122268243Y-80887636D01*
X122112363Y-80731756D01*
X122112358Y-80731752D01*
X121934025Y-80602187D01*
X121934024Y-80602186D01*
X121934022Y-80602185D01*
X121869127Y-80569119D01*
X121737606Y-80502104D01*
X121737603Y-80502103D01*
X121527952Y-80433985D01*
X121419086Y-80416742D01*
X121310222Y-80399500D01*
X121089778Y-80399500D01*
X121017201Y-80410995D01*
X120872047Y-80433985D01*
X120662396Y-80502103D01*
X120662393Y-80502104D01*
X120465974Y-80602187D01*
X120287641Y-80731752D01*
X120287636Y-80731756D01*
X120131756Y-80887636D01*
X120131752Y-80887641D01*
X120002187Y-81065974D01*
X119902104Y-81262393D01*
X119902103Y-81262396D01*
X119833985Y-81472047D01*
X119805766Y-81650215D01*
X119799500Y-81689778D01*
X119799500Y-81910222D01*
X119803624Y-81936260D01*
X119833985Y-82127952D01*
X119902103Y-82337603D01*
X119902104Y-82337606D01*
X119944895Y-82421585D01*
X119983846Y-82498031D01*
X120002187Y-82534025D01*
X120131752Y-82712358D01*
X120131756Y-82712363D01*
X120181928Y-82762535D01*
X120215413Y-82823858D01*
X120210429Y-82893550D01*
X120168557Y-82949483D01*
X120137581Y-82966398D01*
X120057669Y-82996203D01*
X120057664Y-82996206D01*
X119942455Y-83082452D01*
X119942452Y-83082455D01*
X119856206Y-83197664D01*
X119856202Y-83197671D01*
X119805908Y-83332517D01*
X119799756Y-83389743D01*
X119799501Y-83392123D01*
X119799500Y-83392135D01*
X119799500Y-85287870D01*
X119799501Y-85287876D01*
X119805908Y-85347483D01*
X119856202Y-85482328D01*
X119856206Y-85482335D01*
X119942452Y-85597544D01*
X119942455Y-85597547D01*
X120057664Y-85683793D01*
X120057671Y-85683797D01*
X120192517Y-85734091D01*
X120192516Y-85734091D01*
X120199444Y-85734835D01*
X120252127Y-85740500D01*
X122147872Y-85740499D01*
X122207483Y-85734091D01*
X122342331Y-85683796D01*
X122457546Y-85597546D01*
X122543796Y-85482331D01*
X122594091Y-85347483D01*
X122600500Y-85287873D01*
X122600500Y-85114500D01*
X122620185Y-85047461D01*
X122672989Y-85001706D01*
X122724500Y-84990500D01*
X124369192Y-84990500D01*
X124398632Y-84999144D01*
X124428619Y-85005668D01*
X124433634Y-85009422D01*
X124436231Y-85010185D01*
X124456873Y-85026819D01*
X124613181Y-85183127D01*
X124646666Y-85244450D01*
X124649500Y-85270808D01*
X124649500Y-85531616D01*
X124651423Y-85552778D01*
X124655913Y-85602192D01*
X124655913Y-85602194D01*
X124655914Y-85602196D01*
X124706522Y-85764606D01*
X124791560Y-85905276D01*
X124794530Y-85910188D01*
X124914811Y-86030469D01*
X124914813Y-86030470D01*
X124914815Y-86030472D01*
X125060394Y-86118478D01*
X125222804Y-86169086D01*
X125293384Y-86175500D01*
X125293387Y-86175500D01*
X125806613Y-86175500D01*
X125806616Y-86175500D01*
X125877196Y-86169086D01*
X126039606Y-86118478D01*
X126185185Y-86030472D01*
X126287673Y-85927983D01*
X126348994Y-85894499D01*
X126418685Y-85899483D01*
X126463034Y-85927984D01*
X126565122Y-86030072D01*
X126710604Y-86118019D01*
X126710603Y-86118019D01*
X126872894Y-86168590D01*
X126872893Y-86168590D01*
X126943408Y-86174998D01*
X126943426Y-86174999D01*
X127450000Y-86174999D01*
X127456581Y-86174999D01*
X127527102Y-86168591D01*
X127527107Y-86168590D01*
X127689396Y-86118018D01*
X127834877Y-86030072D01*
X127955072Y-85909877D01*
X128043019Y-85764395D01*
X128093590Y-85602106D01*
X128100000Y-85531572D01*
X128100000Y-85450000D01*
X127450000Y-85450000D01*
X127450000Y-86174999D01*
X126943426Y-86174999D01*
X126949999Y-86174998D01*
X126950000Y-86174998D01*
X126950000Y-84225000D01*
X126946687Y-84221688D01*
X126913198Y-84160367D01*
X126918177Y-84090675D01*
X126960044Y-84034739D01*
X127025507Y-84010317D01*
X127034362Y-84010000D01*
X127090634Y-84010000D01*
X127090649Y-84009999D01*
X127127489Y-84007100D01*
X127127495Y-84007099D01*
X127286627Y-83960867D01*
X127356496Y-83961066D01*
X127372115Y-83966868D01*
X127381529Y-83971105D01*
X127389551Y-83976465D01*
X127438329Y-83996669D01*
X127440023Y-83997432D01*
X127465189Y-84018998D01*
X127490986Y-84039786D01*
X127491600Y-84041631D01*
X127493077Y-84042897D01*
X127502584Y-84074634D01*
X127513051Y-84106080D01*
X127512569Y-84107965D01*
X127513128Y-84109828D01*
X127503966Y-84141672D01*
X127495772Y-84173780D01*
X127494116Y-84175910D01*
X127493811Y-84176974D01*
X127492182Y-84178400D01*
X127476812Y-84198188D01*
X127450000Y-84225000D01*
X127450000Y-84950000D01*
X128099999Y-84950000D01*
X128099999Y-84868417D01*
X128093591Y-84797897D01*
X128093590Y-84797892D01*
X128043018Y-84635603D01*
X127955072Y-84490122D01*
X127834877Y-84369927D01*
X127687140Y-84280617D01*
X127639952Y-84229089D01*
X127628114Y-84160230D01*
X127655383Y-84095901D01*
X127713102Y-84056527D01*
X127751290Y-84050500D01*
X129279192Y-84050500D01*
X129308632Y-84059144D01*
X129338619Y-84065668D01*
X129343634Y-84069422D01*
X129346231Y-84070185D01*
X129366868Y-84086814D01*
X129513182Y-84233127D01*
X129546666Y-84294448D01*
X129549500Y-84320807D01*
X129549500Y-85289071D01*
X129567804Y-85381087D01*
X129567804Y-85381088D01*
X129574497Y-85414736D01*
X129574499Y-85414744D01*
X129623534Y-85533126D01*
X129653602Y-85578125D01*
X129674480Y-85644802D01*
X129674500Y-85647016D01*
X129674500Y-85931613D01*
X129680913Y-86002192D01*
X129680913Y-86002194D01*
X129680914Y-86002196D01*
X129731522Y-86164606D01*
X129756226Y-86205472D01*
X129819530Y-86310188D01*
X129939811Y-86430469D01*
X129939813Y-86430470D01*
X129939815Y-86430472D01*
X130004182Y-86469383D01*
X130051370Y-86520911D01*
X130063208Y-86589771D01*
X130035939Y-86654099D01*
X129978220Y-86693473D01*
X129940032Y-86699500D01*
X117624500Y-86699500D01*
X117557461Y-86679815D01*
X117511706Y-86627011D01*
X117500500Y-86575500D01*
X117500500Y-72624500D01*
X117520185Y-72557461D01*
X117572989Y-72511706D01*
X117624500Y-72500500D01*
X141575500Y-72500500D01*
X141642539Y-72520185D01*
G37*
%TD.AperFunction*%
%TA.AperFunction,Conductor*%
G36*
X138479806Y-79795185D02*
G01*
X138525561Y-79847989D01*
X138535505Y-79917147D01*
X138530698Y-79937818D01*
X138483242Y-80083869D01*
X138483242Y-80083872D01*
X138450000Y-80293753D01*
X138450000Y-80506246D01*
X138483242Y-80716127D01*
X138483242Y-80716130D01*
X138548904Y-80918217D01*
X138645375Y-81107550D01*
X138684728Y-81161716D01*
X139317037Y-80529408D01*
X139334075Y-80592993D01*
X139399901Y-80707007D01*
X139492993Y-80800099D01*
X139607007Y-80865925D01*
X139670590Y-80882962D01*
X139038282Y-81515269D01*
X139038282Y-81515270D01*
X139092452Y-81554626D01*
X139092451Y-81554626D01*
X139101495Y-81559234D01*
X139152292Y-81607208D01*
X139169087Y-81675029D01*
X139146550Y-81741164D01*
X139101499Y-81780202D01*
X139092182Y-81784949D01*
X138920213Y-81909890D01*
X138769890Y-82060213D01*
X138644951Y-82232179D01*
X138548444Y-82421585D01*
X138482753Y-82623760D01*
X138454871Y-82799801D01*
X138449500Y-82833713D01*
X138449500Y-83046287D01*
X138455473Y-83084000D01*
X138483516Y-83261055D01*
X138481877Y-83261314D01*
X138478738Y-83323883D01*
X138449342Y-83370710D01*
X138187181Y-83632872D01*
X138125858Y-83666357D01*
X138056167Y-83661373D01*
X138000233Y-83619502D01*
X137975816Y-83554037D01*
X137975500Y-83545191D01*
X137975500Y-83543386D01*
X137969086Y-83472807D01*
X137969086Y-83472804D01*
X137918478Y-83310394D01*
X137830472Y-83164815D01*
X137830470Y-83164813D01*
X137830469Y-83164811D01*
X137710188Y-83044530D01*
X137564606Y-82956522D01*
X137402196Y-82905914D01*
X137396371Y-82905384D01*
X137331389Y-82879714D01*
X137290601Y-82822985D01*
X137286958Y-82753211D01*
X137302058Y-82716795D01*
X137303103Y-82715101D01*
X137312549Y-82699787D01*
X137365436Y-82540185D01*
X137375500Y-82441674D01*
X137375500Y-81908326D01*
X137365436Y-81809815D01*
X137312549Y-81650213D01*
X137312545Y-81650207D01*
X137312544Y-81650204D01*
X137224283Y-81507112D01*
X137224280Y-81507108D01*
X137192353Y-81475181D01*
X137158868Y-81413858D01*
X137163852Y-81344166D01*
X137192353Y-81299819D01*
X137201498Y-81290674D01*
X137224281Y-81267891D01*
X137312549Y-81124787D01*
X137365436Y-80965185D01*
X137375500Y-80866674D01*
X137375500Y-80333326D01*
X137365436Y-80234815D01*
X137312549Y-80075213D01*
X137291633Y-80041303D01*
X137283738Y-80012451D01*
X137273441Y-79984372D01*
X137274615Y-79979112D01*
X137273193Y-79973914D01*
X137282150Y-79945370D01*
X137288669Y-79916182D01*
X137292861Y-79911240D01*
X137294114Y-79907250D01*
X137309975Y-79888045D01*
X137316633Y-79881459D01*
X137318656Y-79880212D01*
X137387350Y-79811517D01*
X137387533Y-79811337D01*
X137418073Y-79794878D01*
X137448372Y-79778334D01*
X137448872Y-79778280D01*
X137449040Y-79778190D01*
X137449431Y-79778220D01*
X137474730Y-79775500D01*
X138412767Y-79775500D01*
X138479806Y-79795185D01*
G37*
%TD.AperFunction*%
%TA.AperFunction,Conductor*%
G36*
X132918075Y-76357364D02*
G01*
X132942302Y-76360001D01*
X132951005Y-76367033D01*
X132961738Y-76370185D01*
X132977692Y-76388597D01*
X132996648Y-76403914D01*
X133004362Y-76419376D01*
X133007493Y-76422989D01*
X133012405Y-76435496D01*
X133040185Y-76519331D01*
X133040187Y-76519336D01*
X133053119Y-76540302D01*
X133132288Y-76668656D01*
X133256344Y-76792712D01*
X133405666Y-76884814D01*
X133572203Y-76939999D01*
X133674991Y-76950500D01*
X133925501Y-76950499D01*
X133992539Y-76970183D01*
X134038294Y-77022987D01*
X134049500Y-77074499D01*
X134049500Y-78876000D01*
X134029815Y-78943039D01*
X133977011Y-78988794D01*
X133925500Y-79000000D01*
X133675029Y-79000000D01*
X133675012Y-79000001D01*
X133572302Y-79010494D01*
X133405880Y-79065641D01*
X133405875Y-79065643D01*
X133256654Y-79157684D01*
X133132684Y-79281654D01*
X133040643Y-79430875D01*
X133040641Y-79430880D01*
X132985494Y-79597302D01*
X132985493Y-79597309D01*
X132975000Y-79700013D01*
X132975000Y-79750000D01*
X134076000Y-79750000D01*
X134143039Y-79769685D01*
X134188794Y-79822489D01*
X134200000Y-79874000D01*
X134200000Y-80126000D01*
X134180315Y-80193039D01*
X134127511Y-80238794D01*
X134076000Y-80250000D01*
X132975001Y-80250000D01*
X132975001Y-80299986D01*
X132985494Y-80402697D01*
X133040641Y-80569119D01*
X133040643Y-80569124D01*
X133132684Y-80718345D01*
X133256655Y-80842316D01*
X133256659Y-80842319D01*
X133259656Y-80844168D01*
X133261279Y-80845972D01*
X133262323Y-80846798D01*
X133262181Y-80846976D01*
X133306381Y-80896116D01*
X133317602Y-80965079D01*
X133289759Y-81029161D01*
X133282810Y-81036814D01*
X133272339Y-81047422D01*
X133256344Y-81057288D01*
X133132288Y-81181344D01*
X133119186Y-81202584D01*
X133109293Y-81212608D01*
X133090559Y-81222996D01*
X133074632Y-81237322D01*
X133057847Y-81241136D01*
X133048189Y-81246492D01*
X133037371Y-81245789D01*
X133021042Y-81249500D01*
X132692339Y-81249500D01*
X132625300Y-81229815D01*
X132579545Y-81177011D01*
X132569601Y-81107853D01*
X132575195Y-81088072D01*
X132574568Y-81087890D01*
X132622597Y-80922573D01*
X132622598Y-80922567D01*
X132624413Y-80899500D01*
X132625500Y-80885694D01*
X132625500Y-80454306D01*
X132622598Y-80417431D01*
X132618317Y-80402697D01*
X132576745Y-80259606D01*
X132576744Y-80259603D01*
X132576744Y-80259602D01*
X132493081Y-80118135D01*
X132493078Y-80118132D01*
X132488298Y-80111969D01*
X132490750Y-80110066D01*
X132464155Y-80061421D01*
X132469104Y-79991726D01*
X132489940Y-79959304D01*
X132488298Y-79958031D01*
X132493075Y-79951870D01*
X132493081Y-79951865D01*
X132576744Y-79810398D01*
X132622598Y-79652569D01*
X132625500Y-79615694D01*
X132625500Y-79184306D01*
X132622598Y-79147431D01*
X132599388Y-79067544D01*
X132576745Y-78989606D01*
X132576744Y-78989603D01*
X132576744Y-78989602D01*
X132493081Y-78848135D01*
X132493079Y-78848133D01*
X132493076Y-78848129D01*
X132376870Y-78731923D01*
X132376862Y-78731917D01*
X132298681Y-78685681D01*
X132235398Y-78648256D01*
X132235397Y-78648255D01*
X132235396Y-78648255D01*
X132235393Y-78648254D01*
X132077573Y-78602402D01*
X132077567Y-78602401D01*
X132040701Y-78599500D01*
X132040694Y-78599500D01*
X132024500Y-78599500D01*
X131957461Y-78579815D01*
X131911706Y-78527011D01*
X131900500Y-78475500D01*
X131900500Y-76760196D01*
X131920185Y-76693157D01*
X131968206Y-76649711D01*
X131979681Y-76643865D01*
X132135102Y-76530945D01*
X132270945Y-76395102D01*
X132270949Y-76395097D01*
X132271923Y-76393958D01*
X132272400Y-76393646D01*
X132274390Y-76391657D01*
X132274808Y-76392075D01*
X132330434Y-76355771D01*
X132366204Y-76350500D01*
X132894699Y-76350500D01*
X132918075Y-76357364D01*
G37*
%TD.AperFunction*%
%TA.AperFunction,Conductor*%
G36*
X127282200Y-76268646D02*
G01*
X127282201Y-76268646D01*
X127303436Y-76239419D01*
X127390616Y-76068319D01*
X127411805Y-76003108D01*
X127451242Y-75945433D01*
X127515600Y-75918234D01*
X127584447Y-75930148D01*
X127635923Y-75977392D01*
X127647667Y-76003108D01*
X127668916Y-76068505D01*
X127668917Y-76068508D01*
X127668918Y-76068509D01*
X127756135Y-76239681D01*
X127869055Y-76395102D01*
X128004898Y-76530945D01*
X128160319Y-76643865D01*
X128264751Y-76697076D01*
X128331493Y-76731083D01*
X128514198Y-76790447D01*
X128539564Y-76794464D01*
X128644899Y-76811147D01*
X128708032Y-76841076D01*
X128744964Y-76900387D01*
X128749500Y-76933620D01*
X128749500Y-78518059D01*
X128729815Y-78585098D01*
X128677011Y-78630853D01*
X128607853Y-78640797D01*
X128544297Y-78611772D01*
X128537819Y-78605740D01*
X128510292Y-78578213D01*
X128510288Y-78578210D01*
X128379185Y-78490609D01*
X128379172Y-78490602D01*
X128233501Y-78430264D01*
X128233489Y-78430261D01*
X128078845Y-78399500D01*
X128078842Y-78399500D01*
X127921158Y-78399500D01*
X127921155Y-78399500D01*
X127766510Y-78430261D01*
X127766498Y-78430264D01*
X127620827Y-78490602D01*
X127620814Y-78490609D01*
X127489711Y-78578210D01*
X127489707Y-78578213D01*
X127437781Y-78630140D01*
X127376458Y-78663625D01*
X127306766Y-78658641D01*
X127286981Y-78649192D01*
X127285398Y-78648256D01*
X127285393Y-78648254D01*
X127127573Y-78602402D01*
X127127567Y-78602401D01*
X127090701Y-78599500D01*
X127090694Y-78599500D01*
X125574500Y-78599500D01*
X125507461Y-78579815D01*
X125461706Y-78527011D01*
X125450500Y-78475500D01*
X125450500Y-76759126D01*
X125470185Y-76692087D01*
X125522989Y-76646332D01*
X125592147Y-76636388D01*
X125630795Y-76648641D01*
X125791678Y-76730616D01*
X125974315Y-76789959D01*
X126163985Y-76820000D01*
X126356015Y-76820000D01*
X126545684Y-76789959D01*
X126728321Y-76730616D01*
X126899419Y-76643436D01*
X126928646Y-76622201D01*
X126928646Y-76622200D01*
X126306446Y-76000000D01*
X126312661Y-76000000D01*
X126414394Y-75972741D01*
X126505606Y-75920080D01*
X126580080Y-75845606D01*
X126632741Y-75754394D01*
X126660000Y-75652661D01*
X126660000Y-75646446D01*
X127282200Y-76268646D01*
G37*
%TD.AperFunction*%
%TD*%
D33*
%TO.C,U2*%
X126200000Y-79400000D03*
X126200000Y-80670000D03*
X126200000Y-81940000D03*
X126200000Y-83210000D03*
X131150000Y-83210000D03*
X131150000Y-81940000D03*
X131150000Y-80670000D03*
X131150000Y-79400000D03*
%TD*%
D19*
%TO.C,J1*%
X139800000Y-77860000D03*
D20*
X139800000Y-80400000D03*
X139800000Y-82940000D03*
%TD*%
D34*
%TO.C,R4*%
X134400000Y-85625000D03*
X134400000Y-83975000D03*
%TD*%
D21*
%TO.C,D1*%
X121200000Y-84340000D03*
D22*
X121200000Y-81800000D03*
%TD*%
D21*
%TO.C,D3*%
X120577500Y-75120000D03*
D22*
X120577500Y-77660000D03*
%TD*%
D23*
%TO.C,RV1*%
X131340000Y-75600000D03*
X128800000Y-75600000D03*
X126260000Y-75600000D03*
%TD*%
D35*
%TO.C,R5*%
X137000000Y-83800000D03*
X137000000Y-85450000D03*
%TD*%
D36*
%TO.C,R3*%
X132225000Y-85600000D03*
X130575000Y-85600000D03*
%TD*%
D37*
%TO.C,R1*%
X125550000Y-85200000D03*
X127200000Y-85200000D03*
%TD*%
D38*
%TO.C,R2*%
X136400000Y-79025000D03*
X136400000Y-77200000D03*
%TD*%
D39*
%TO.C,D4*%
X136400000Y-82175000D03*
X136400000Y-80600000D03*
%TD*%
D40*
%TO.C,C1*%
X134200000Y-75950000D03*
X134200000Y-74050000D03*
%TD*%
D41*
%TO.C,D2*%
X136800000Y-74025000D03*
X136800000Y-75600000D03*
%TD*%
D40*
%TO.C,C2*%
X134200000Y-81900000D03*
X134200000Y-80000000D03*
%TD*%
D33*
%TO.C,U2*%
X126200000Y-79400000D03*
X126200000Y-80670000D03*
X126200000Y-81940000D03*
X126200000Y-83210000D03*
X131150000Y-83210000D03*
X131150000Y-81940000D03*
X131150000Y-80670000D03*
X131150000Y-79400000D03*
%TD*%
D34*
%TO.C,R4*%
X134400000Y-85625000D03*
X134400000Y-83975000D03*
%TD*%
D35*
%TO.C,R5*%
X137000000Y-83800000D03*
X137000000Y-85450000D03*
%TD*%
D36*
%TO.C,R3*%
X132225000Y-85600000D03*
X130575000Y-85600000D03*
%TD*%
D37*
%TO.C,R1*%
X125550000Y-85200000D03*
X127200000Y-85200000D03*
%TD*%
D38*
%TO.C,R2*%
X136400000Y-79025000D03*
X136400000Y-77200000D03*
%TD*%
D39*
%TO.C,D4*%
X136400000Y-82175000D03*
X136400000Y-80600000D03*
%TD*%
D40*
%TO.C,C1*%
X134200000Y-75950000D03*
X134200000Y-74050000D03*
%TD*%
D41*
%TO.C,D2*%
X136800000Y-74025000D03*
X136800000Y-75600000D03*
%TD*%
D40*
%TO.C,C2*%
X134200000Y-81900000D03*
X134200000Y-80000000D03*
%TD*%
D42*
X128019047Y-84126109D02*
X128019047Y-84530871D01*
X128019047Y-84530871D02*
X128042857Y-84578490D01*
X128042857Y-84578490D02*
X128066666Y-84602300D01*
X128066666Y-84602300D02*
X128114285Y-84626109D01*
X128114285Y-84626109D02*
X128209523Y-84626109D01*
X128209523Y-84626109D02*
X128257142Y-84602300D01*
X128257142Y-84602300D02*
X128280952Y-84578490D01*
X128280952Y-84578490D02*
X128304761Y-84530871D01*
X128304761Y-84530871D02*
X128304761Y-84126109D01*
X128519048Y-84173728D02*
X128542857Y-84149919D01*
X128542857Y-84149919D02*
X128590476Y-84126109D01*
X128590476Y-84126109D02*
X128709524Y-84126109D01*
X128709524Y-84126109D02*
X128757143Y-84149919D01*
X128757143Y-84149919D02*
X128780952Y-84173728D01*
X128780952Y-84173728D02*
X128804762Y-84221347D01*
X128804762Y-84221347D02*
X128804762Y-84268966D01*
X128804762Y-84268966D02*
X128780952Y-84340395D01*
X128780952Y-84340395D02*
X128495238Y-84626109D01*
X128495238Y-84626109D02*
X128804762Y-84626109D01*
X139633333Y-75326109D02*
X139633333Y-75683252D01*
X139633333Y-75683252D02*
X139609524Y-75754680D01*
X139609524Y-75754680D02*
X139561905Y-75802300D01*
X139561905Y-75802300D02*
X139490476Y-75826109D01*
X139490476Y-75826109D02*
X139442857Y-75826109D01*
X140133333Y-75826109D02*
X139847619Y-75826109D01*
X139990476Y-75826109D02*
X139990476Y-75326109D01*
X139990476Y-75326109D02*
X139942857Y-75397538D01*
X139942857Y-75397538D02*
X139895238Y-75445157D01*
X139895238Y-75445157D02*
X139847619Y-75468966D01*
X135826109Y-86083333D02*
X135588014Y-86249999D01*
X135826109Y-86369047D02*
X135326109Y-86369047D01*
X135326109Y-86369047D02*
X135326109Y-86178571D01*
X135326109Y-86178571D02*
X135349919Y-86130952D01*
X135349919Y-86130952D02*
X135373728Y-86107142D01*
X135373728Y-86107142D02*
X135421347Y-86083333D01*
X135421347Y-86083333D02*
X135492776Y-86083333D01*
X135492776Y-86083333D02*
X135540395Y-86107142D01*
X135540395Y-86107142D02*
X135564204Y-86130952D01*
X135564204Y-86130952D02*
X135588014Y-86178571D01*
X135588014Y-86178571D02*
X135588014Y-86369047D01*
X135492776Y-85654761D02*
X135826109Y-85654761D01*
X135302300Y-85773809D02*
X135659442Y-85892856D01*
X135659442Y-85892856D02*
X135659442Y-85583333D01*
D43*
X125654819Y-81338094D02*
X124654819Y-81338094D01*
X124654819Y-81338094D02*
X124654819Y-81099999D01*
X124654819Y-81099999D02*
X124702438Y-80957142D01*
X124702438Y-80957142D02*
X124797676Y-80861904D01*
X124797676Y-80861904D02*
X124892914Y-80814285D01*
X124892914Y-80814285D02*
X125083390Y-80766666D01*
X125083390Y-80766666D02*
X125226247Y-80766666D01*
X125226247Y-80766666D02*
X125416723Y-80814285D01*
X125416723Y-80814285D02*
X125511961Y-80861904D01*
X125511961Y-80861904D02*
X125607200Y-80957142D01*
X125607200Y-80957142D02*
X125654819Y-81099999D01*
X125654819Y-81099999D02*
X125654819Y-81338094D01*
X125654819Y-79814285D02*
X125654819Y-80385713D01*
X125654819Y-80099999D02*
X124654819Y-80099999D01*
X124654819Y-80099999D02*
X124797676Y-80195237D01*
X124797676Y-80195237D02*
X124892914Y-80290475D01*
X124892914Y-80290475D02*
X124940533Y-80385713D01*
X123232319Y-79598094D02*
X122232319Y-79598094D01*
X122232319Y-79598094D02*
X122232319Y-79359999D01*
X122232319Y-79359999D02*
X122279938Y-79217142D01*
X122279938Y-79217142D02*
X122375176Y-79121904D01*
X122375176Y-79121904D02*
X122470414Y-79074285D01*
X122470414Y-79074285D02*
X122660890Y-79026666D01*
X122660890Y-79026666D02*
X122803747Y-79026666D01*
X122803747Y-79026666D02*
X122994223Y-79074285D01*
X122994223Y-79074285D02*
X123089461Y-79121904D01*
X123089461Y-79121904D02*
X123184700Y-79217142D01*
X123184700Y-79217142D02*
X123232319Y-79359999D01*
X123232319Y-79359999D02*
X123232319Y-79598094D01*
X122232319Y-78693332D02*
X122232319Y-78074285D01*
X122232319Y-78074285D02*
X122613271Y-78407618D01*
X122613271Y-78407618D02*
X122613271Y-78264761D01*
X122613271Y-78264761D02*
X122660890Y-78169523D01*
X122660890Y-78169523D02*
X122708509Y-78121904D01*
X122708509Y-78121904D02*
X122803747Y-78074285D01*
X122803747Y-78074285D02*
X123041842Y-78074285D01*
X123041842Y-78074285D02*
X123137080Y-78121904D01*
X123137080Y-78121904D02*
X123184700Y-78169523D01*
X123184700Y-78169523D02*
X123232319Y-78264761D01*
X123232319Y-78264761D02*
X123232319Y-78550475D01*
X123232319Y-78550475D02*
X123184700Y-78645713D01*
X123184700Y-78645713D02*
X123137080Y-78693332D01*
D42*
X131902381Y-78826109D02*
X131735715Y-78588014D01*
X131616667Y-78826109D02*
X131616667Y-78326109D01*
X131616667Y-78326109D02*
X131807143Y-78326109D01*
X131807143Y-78326109D02*
X131854762Y-78349919D01*
X131854762Y-78349919D02*
X131878572Y-78373728D01*
X131878572Y-78373728D02*
X131902381Y-78421347D01*
X131902381Y-78421347D02*
X131902381Y-78492776D01*
X131902381Y-78492776D02*
X131878572Y-78540395D01*
X131878572Y-78540395D02*
X131854762Y-78564204D01*
X131854762Y-78564204D02*
X131807143Y-78588014D01*
X131807143Y-78588014D02*
X131616667Y-78588014D01*
X132045239Y-78326109D02*
X132211905Y-78826109D01*
X132211905Y-78826109D02*
X132378572Y-78326109D01*
X132807143Y-78826109D02*
X132521429Y-78826109D01*
X132664286Y-78826109D02*
X132664286Y-78326109D01*
X132664286Y-78326109D02*
X132616667Y-78397538D01*
X132616667Y-78397538D02*
X132569048Y-78445157D01*
X132569048Y-78445157D02*
X132521429Y-78468966D01*
X136026109Y-84283333D02*
X135788014Y-84449999D01*
X136026109Y-84569047D02*
X135526109Y-84569047D01*
X135526109Y-84569047D02*
X135526109Y-84378571D01*
X135526109Y-84378571D02*
X135549919Y-84330952D01*
X135549919Y-84330952D02*
X135573728Y-84307142D01*
X135573728Y-84307142D02*
X135621347Y-84283333D01*
X135621347Y-84283333D02*
X135692776Y-84283333D01*
X135692776Y-84283333D02*
X135740395Y-84307142D01*
X135740395Y-84307142D02*
X135764204Y-84330952D01*
X135764204Y-84330952D02*
X135788014Y-84378571D01*
X135788014Y-84378571D02*
X135788014Y-84569047D01*
X135526109Y-83830952D02*
X135526109Y-84069047D01*
X135526109Y-84069047D02*
X135764204Y-84092856D01*
X135764204Y-84092856D02*
X135740395Y-84069047D01*
X135740395Y-84069047D02*
X135716585Y-84021428D01*
X135716585Y-84021428D02*
X135716585Y-83902380D01*
X135716585Y-83902380D02*
X135740395Y-83854761D01*
X135740395Y-83854761D02*
X135764204Y-83830952D01*
X135764204Y-83830952D02*
X135811823Y-83807142D01*
X135811823Y-83807142D02*
X135930871Y-83807142D01*
X135930871Y-83807142D02*
X135978490Y-83830952D01*
X135978490Y-83830952D02*
X136002300Y-83854761D01*
X136002300Y-83854761D02*
X136026109Y-83902380D01*
X136026109Y-83902380D02*
X136026109Y-84021428D01*
X136026109Y-84021428D02*
X136002300Y-84069047D01*
X136002300Y-84069047D02*
X135978490Y-84092856D01*
X129316666Y-85626109D02*
X129150000Y-85388014D01*
X129030952Y-85626109D02*
X129030952Y-85126109D01*
X129030952Y-85126109D02*
X129221428Y-85126109D01*
X129221428Y-85126109D02*
X129269047Y-85149919D01*
X129269047Y-85149919D02*
X129292857Y-85173728D01*
X129292857Y-85173728D02*
X129316666Y-85221347D01*
X129316666Y-85221347D02*
X129316666Y-85292776D01*
X129316666Y-85292776D02*
X129292857Y-85340395D01*
X129292857Y-85340395D02*
X129269047Y-85364204D01*
X129269047Y-85364204D02*
X129221428Y-85388014D01*
X129221428Y-85388014D02*
X129030952Y-85388014D01*
X129483333Y-85126109D02*
X129792857Y-85126109D01*
X129792857Y-85126109D02*
X129626190Y-85316585D01*
X129626190Y-85316585D02*
X129697619Y-85316585D01*
X129697619Y-85316585D02*
X129745238Y-85340395D01*
X129745238Y-85340395D02*
X129769047Y-85364204D01*
X129769047Y-85364204D02*
X129792857Y-85411823D01*
X129792857Y-85411823D02*
X129792857Y-85530871D01*
X129792857Y-85530871D02*
X129769047Y-85578490D01*
X129769047Y-85578490D02*
X129745238Y-85602300D01*
X129745238Y-85602300D02*
X129697619Y-85626109D01*
X129697619Y-85626109D02*
X129554762Y-85626109D01*
X129554762Y-85626109D02*
X129507143Y-85602300D01*
X129507143Y-85602300D02*
X129483333Y-85578490D01*
X128316666Y-86026109D02*
X128150000Y-85788014D01*
X128030952Y-86026109D02*
X128030952Y-85526109D01*
X128030952Y-85526109D02*
X128221428Y-85526109D01*
X128221428Y-85526109D02*
X128269047Y-85549919D01*
X128269047Y-85549919D02*
X128292857Y-85573728D01*
X128292857Y-85573728D02*
X128316666Y-85621347D01*
X128316666Y-85621347D02*
X128316666Y-85692776D01*
X128316666Y-85692776D02*
X128292857Y-85740395D01*
X128292857Y-85740395D02*
X128269047Y-85764204D01*
X128269047Y-85764204D02*
X128221428Y-85788014D01*
X128221428Y-85788014D02*
X128030952Y-85788014D01*
X128792857Y-86026109D02*
X128507143Y-86026109D01*
X128650000Y-86026109D02*
X128650000Y-85526109D01*
X128650000Y-85526109D02*
X128602381Y-85597538D01*
X128602381Y-85597538D02*
X128554762Y-85645157D01*
X128554762Y-85645157D02*
X128507143Y-85668966D01*
X137779847Y-77266666D02*
X137589371Y-77399999D01*
X137779847Y-77495237D02*
X137379847Y-77495237D01*
X137379847Y-77495237D02*
X137379847Y-77342856D01*
X137379847Y-77342856D02*
X137398895Y-77304761D01*
X137398895Y-77304761D02*
X137417942Y-77285714D01*
X137417942Y-77285714D02*
X137456038Y-77266666D01*
X137456038Y-77266666D02*
X137513180Y-77266666D01*
X137513180Y-77266666D02*
X137551276Y-77285714D01*
X137551276Y-77285714D02*
X137570323Y-77304761D01*
X137570323Y-77304761D02*
X137589371Y-77342856D01*
X137589371Y-77342856D02*
X137589371Y-77495237D01*
X137417942Y-77114285D02*
X137398895Y-77095237D01*
X137398895Y-77095237D02*
X137379847Y-77057142D01*
X137379847Y-77057142D02*
X137379847Y-76961904D01*
X137379847Y-76961904D02*
X137398895Y-76923809D01*
X137398895Y-76923809D02*
X137417942Y-76904761D01*
X137417942Y-76904761D02*
X137456038Y-76885714D01*
X137456038Y-76885714D02*
X137494133Y-76885714D01*
X137494133Y-76885714D02*
X137551276Y-76904761D01*
X137551276Y-76904761D02*
X137779847Y-77133333D01*
X137779847Y-77133333D02*
X137779847Y-76885714D01*
X138026109Y-81756547D02*
X137526109Y-81756547D01*
X137526109Y-81756547D02*
X137526109Y-81637499D01*
X137526109Y-81637499D02*
X137549919Y-81566071D01*
X137549919Y-81566071D02*
X137597538Y-81518452D01*
X137597538Y-81518452D02*
X137645157Y-81494642D01*
X137645157Y-81494642D02*
X137740395Y-81470833D01*
X137740395Y-81470833D02*
X137811823Y-81470833D01*
X137811823Y-81470833D02*
X137907061Y-81494642D01*
X137907061Y-81494642D02*
X137954680Y-81518452D01*
X137954680Y-81518452D02*
X138002300Y-81566071D01*
X138002300Y-81566071D02*
X138026109Y-81637499D01*
X138026109Y-81637499D02*
X138026109Y-81756547D01*
X137692776Y-81042261D02*
X138026109Y-81042261D01*
X137502300Y-81161309D02*
X137859442Y-81280356D01*
X137859442Y-81280356D02*
X137859442Y-80970833D01*
D44*
X132906314Y-73849999D02*
X132920600Y-73864285D01*
X132920600Y-73864285D02*
X132934885Y-73907142D01*
X132934885Y-73907142D02*
X132934885Y-73935714D01*
X132934885Y-73935714D02*
X132920600Y-73978571D01*
X132920600Y-73978571D02*
X132892028Y-74007142D01*
X132892028Y-74007142D02*
X132863457Y-74021428D01*
X132863457Y-74021428D02*
X132806314Y-74035714D01*
X132806314Y-74035714D02*
X132763457Y-74035714D01*
X132763457Y-74035714D02*
X132706314Y-74021428D01*
X132706314Y-74021428D02*
X132677742Y-74007142D01*
X132677742Y-74007142D02*
X132649171Y-73978571D01*
X132649171Y-73978571D02*
X132634885Y-73935714D01*
X132634885Y-73935714D02*
X132634885Y-73907142D01*
X132634885Y-73907142D02*
X132649171Y-73864285D01*
X132649171Y-73864285D02*
X132663457Y-73849999D01*
X132934885Y-73564285D02*
X132934885Y-73735714D01*
X132934885Y-73649999D02*
X132634885Y-73649999D01*
X132634885Y-73649999D02*
X132677742Y-73678571D01*
X132677742Y-73678571D02*
X132706314Y-73707142D01*
X132706314Y-73707142D02*
X132720600Y-73735714D01*
D42*
X135826109Y-75181547D02*
X135326109Y-75181547D01*
X135326109Y-75181547D02*
X135326109Y-75062499D01*
X135326109Y-75062499D02*
X135349919Y-74991071D01*
X135349919Y-74991071D02*
X135397538Y-74943452D01*
X135397538Y-74943452D02*
X135445157Y-74919642D01*
X135445157Y-74919642D02*
X135540395Y-74895833D01*
X135540395Y-74895833D02*
X135611823Y-74895833D01*
X135611823Y-74895833D02*
X135707061Y-74919642D01*
X135707061Y-74919642D02*
X135754680Y-74943452D01*
X135754680Y-74943452D02*
X135802300Y-74991071D01*
X135802300Y-74991071D02*
X135826109Y-75062499D01*
X135826109Y-75062499D02*
X135826109Y-75181547D01*
X135373728Y-74705356D02*
X135349919Y-74681547D01*
X135349919Y-74681547D02*
X135326109Y-74633928D01*
X135326109Y-74633928D02*
X135326109Y-74514880D01*
X135326109Y-74514880D02*
X135349919Y-74467261D01*
X135349919Y-74467261D02*
X135373728Y-74443452D01*
X135373728Y-74443452D02*
X135421347Y-74419642D01*
X135421347Y-74419642D02*
X135468966Y-74419642D01*
X135468966Y-74419642D02*
X135540395Y-74443452D01*
X135540395Y-74443452D02*
X135826109Y-74729166D01*
X135826109Y-74729166D02*
X135826109Y-74419642D01*
X132978490Y-81283333D02*
X133002300Y-81307142D01*
X133002300Y-81307142D02*
X133026109Y-81378571D01*
X133026109Y-81378571D02*
X133026109Y-81426190D01*
X133026109Y-81426190D02*
X133002300Y-81497618D01*
X133002300Y-81497618D02*
X132954680Y-81545237D01*
X132954680Y-81545237D02*
X132907061Y-81569047D01*
X132907061Y-81569047D02*
X132811823Y-81592856D01*
X132811823Y-81592856D02*
X132740395Y-81592856D01*
X132740395Y-81592856D02*
X132645157Y-81569047D01*
X132645157Y-81569047D02*
X132597538Y-81545237D01*
X132597538Y-81545237D02*
X132549919Y-81497618D01*
X132549919Y-81497618D02*
X132526109Y-81426190D01*
X132526109Y-81426190D02*
X132526109Y-81378571D01*
X132526109Y-81378571D02*
X132549919Y-81307142D01*
X132549919Y-81307142D02*
X132573728Y-81283333D01*
X132573728Y-81092856D02*
X132549919Y-81069047D01*
X132549919Y-81069047D02*
X132526109Y-81021428D01*
X132526109Y-81021428D02*
X132526109Y-80902380D01*
X132526109Y-80902380D02*
X132549919Y-80854761D01*
X132549919Y-80854761D02*
X132573728Y-80830952D01*
X132573728Y-80830952D02*
X132621347Y-80807142D01*
X132621347Y-80807142D02*
X132668966Y-80807142D01*
X132668966Y-80807142D02*
X132740395Y-80830952D01*
X132740395Y-80830952D02*
X133026109Y-81116666D01*
X133026109Y-81116666D02*
X133026109Y-80807142D01*
%TO.C,U2*%
D45*
X128675000Y-78745000D02*
X126725000Y-78745000D01*
X128675000Y-78745000D02*
X130625000Y-78745000D01*
X128675000Y-83865000D02*
X126725000Y-83865000D01*
X128675000Y-83865000D02*
X130625000Y-83865000D01*
X125975000Y-78840000D02*
X125735000Y-78510000D01*
X126215000Y-78510000D01*
X125975000Y-78840000D01*
G36*
X125975000Y-78840000D02*
G01*
X125735000Y-78510000D01*
X126215000Y-78510000D01*
X125975000Y-78840000D01*
G37*
%TO.C,J1*%
X138420000Y-76480000D02*
X139800000Y-76480000D01*
X138420000Y-77860000D02*
X138420000Y-76480000D01*
X138420000Y-79130000D02*
X138420000Y-84320000D01*
X138420000Y-79130000D02*
X141180000Y-79130000D01*
X138420000Y-84320000D02*
X141180000Y-84320000D01*
X141180000Y-79130000D02*
X141180000Y-84320000D01*
%TO.C,R4*%
X133877500Y-85037258D02*
X133877500Y-84562742D01*
X134922500Y-85037258D02*
X134922500Y-84562742D01*
%TO.C,D1*%
X119655000Y-85630000D02*
X122745000Y-85630000D01*
X119655170Y-85630000D02*
G75*
G02*
X121200000Y-80080000I1544830J2560000D01*
G01*
X121200000Y-80080000D02*
G75*
G02*
X122744830Y-85630000I0J-2990000D01*
G01*
X123700000Y-83070000D02*
G75*
G02*
X118700000Y-83070000I-2500000J0D01*
G01*
X118700000Y-83070000D02*
G75*
G02*
X123700000Y-83070000I2500000J0D01*
G01*
%TO.C,D3*%
X118247500Y-78950000D02*
X119367500Y-78950000D01*
X118247500Y-79350000D02*
X118247500Y-78950000D01*
X119367500Y-73830000D02*
X113207500Y-73830000D01*
X119367500Y-73830000D02*
X119367500Y-78950000D01*
X119367500Y-75120000D02*
X119367500Y-75120000D01*
X119367500Y-75120000D02*
X119497500Y-75120000D01*
X119367500Y-77660000D02*
X119367500Y-77660000D01*
X119367500Y-77660000D02*
X119497500Y-77660000D01*
X119367500Y-78950000D02*
X113207500Y-78950000D01*
X119367500Y-78950000D02*
X119367500Y-79350000D01*
X119367500Y-79350000D02*
X118247500Y-79350000D01*
X119497500Y-75120000D02*
X119367500Y-75120000D01*
X119497500Y-75120000D02*
X119497500Y-75120000D01*
X119497500Y-77660000D02*
X119367500Y-77660000D01*
X119497500Y-77660000D02*
X119497500Y-77660000D01*
X113207500Y-78950000D02*
G75*
G02*
X113207500Y-73830000I0J2560000D01*
G01*
%TO.C,RV1*%
X125335000Y-73330000D02*
X125335000Y-75383000D01*
X125335000Y-73330000D02*
X132265000Y-73330000D01*
X125335000Y-75817000D02*
X125335000Y-78050000D01*
X125335000Y-78050000D02*
X132265000Y-78050000D01*
X132265000Y-73330000D02*
X132265000Y-75383000D01*
X132265000Y-75817000D02*
X132265000Y-78050000D01*
%TO.C,R5*%
X136477500Y-84387742D02*
X136477500Y-84862258D01*
X137522500Y-84387742D02*
X137522500Y-84862258D01*
%TO.C,R3*%
X131637258Y-85077500D02*
X131162742Y-85077500D01*
X131637258Y-86122500D02*
X131162742Y-86122500D01*
%TO.C,R1*%
X126137742Y-84677500D02*
X126612258Y-84677500D01*
X126137742Y-85722500D02*
X126612258Y-85722500D01*
%TO.C,R2*%
X135665000Y-78339564D02*
X135665000Y-77885436D01*
X137135000Y-78339564D02*
X137135000Y-77885436D01*
%TO.C,D4*%
X135665000Y-80587500D02*
X135665000Y-82872500D01*
X135665000Y-82872500D02*
X137135000Y-82872500D01*
X137135000Y-82872500D02*
X137135000Y-80587500D01*
%TO.C,C1*%
X133465000Y-75261252D02*
X133465000Y-74738748D01*
X134935000Y-75261252D02*
X134935000Y-74738748D01*
%TO.C,D2*%
X136065000Y-73327500D02*
X136065000Y-75612500D01*
X137535000Y-73327500D02*
X136065000Y-73327500D01*
X137535000Y-75612500D02*
X137535000Y-73327500D01*
%TO.C,C2*%
X133465000Y-81211252D02*
X133465000Y-80688748D01*
X134935000Y-81211252D02*
X134935000Y-80688748D01*
%TD*%
%TO.C,U2*%
D46*
X124975000Y-78845000D02*
X126475000Y-78845000D01*
X124975000Y-83765000D02*
X124975000Y-78845000D01*
X126475000Y-78605000D02*
X130875000Y-78605000D01*
X126475000Y-78845000D02*
X126475000Y-78605000D01*
X126475000Y-83765000D02*
X124975000Y-83765000D01*
X126475000Y-84005000D02*
X126475000Y-83765000D01*
X130875000Y-78605000D02*
X130875000Y-78845000D01*
X130875000Y-78845000D02*
X132375000Y-78845000D01*
X130875000Y-83765000D02*
X130875000Y-84005000D01*
X130875000Y-84005000D02*
X126475000Y-84005000D01*
X132375000Y-78845000D02*
X132375000Y-83765000D01*
X132375000Y-83765000D02*
X130875000Y-83765000D01*
%TO.C,J1*%
X138030000Y-76090000D02*
X138030000Y-84710000D01*
X138030000Y-84710000D02*
X141570000Y-84710000D01*
X141570000Y-76090000D02*
X138030000Y-76090000D01*
X141570000Y-84710000D02*
X141570000Y-76090000D01*
%TO.C,R4*%
X133670000Y-83320000D02*
X135130000Y-83320000D01*
X133670000Y-86280000D02*
X133670000Y-83320000D01*
X135130000Y-83320000D02*
X135130000Y-86280000D01*
X135130000Y-86280000D02*
X133670000Y-86280000D01*
%TO.C,D1*%
X117990000Y-79850000D02*
X117990000Y-86280000D01*
X117990000Y-86280000D02*
X124410000Y-86280000D01*
X124410000Y-79850000D02*
X117990000Y-79850000D01*
X124410000Y-86280000D02*
X124410000Y-79850000D01*
%TO.C,D3*%
X119077500Y-73190000D02*
X119077500Y-79620000D01*
X119077500Y-79610000D02*
X121787500Y-79610000D01*
X121787500Y-73180000D02*
X119077500Y-73190000D01*
X121787500Y-79610000D02*
X121787500Y-73180000D01*
%TO.C,RV1*%
X125190000Y-73190000D02*
X132410000Y-73190000D01*
X132410000Y-78190000D01*
X125190000Y-78190000D01*
X125190000Y-73190000D01*
%TO.C,R5*%
X136270000Y-83145000D02*
X137730000Y-83145000D01*
X136270000Y-86105000D02*
X136270000Y-83145000D01*
X137730000Y-83145000D02*
X137730000Y-86105000D01*
X137730000Y-86105000D02*
X136270000Y-86105000D01*
%TO.C,R3*%
X129920000Y-84870000D02*
X132880000Y-84870000D01*
X129920000Y-86330000D02*
X129920000Y-84870000D01*
X132880000Y-84870000D02*
X132880000Y-86330000D01*
X132880000Y-86330000D02*
X129920000Y-86330000D01*
%TO.C,R1*%
X124895000Y-84470000D02*
X127855000Y-84470000D01*
X124895000Y-85930000D02*
X124895000Y-84470000D01*
X127855000Y-84470000D02*
X127855000Y-85930000D01*
X127855000Y-85930000D02*
X124895000Y-85930000D01*
%TO.C,R2*%
X135450000Y-76432500D02*
X137350000Y-76432500D01*
X135450000Y-79792500D02*
X135450000Y-76432500D01*
X137350000Y-76432500D02*
X137350000Y-79792500D01*
X137350000Y-79792500D02*
X135450000Y-79792500D01*
%TO.C,D4*%
X135670000Y-79907500D02*
X137130000Y-79907500D01*
X135670000Y-82867500D02*
X135670000Y-79907500D01*
X137130000Y-79907500D02*
X137130000Y-82867500D01*
X137130000Y-82867500D02*
X135670000Y-82867500D01*
%TO.C,C1*%
X133220000Y-73300000D02*
X135180000Y-73300000D01*
X133220000Y-76700000D02*
X133220000Y-73300000D01*
X135180000Y-73300000D02*
X135180000Y-76700000D01*
X135180000Y-76700000D02*
X133220000Y-76700000D01*
%TO.C,D2*%
X136070000Y-73332500D02*
X137530000Y-73332500D01*
X136070000Y-76292500D02*
X136070000Y-73332500D01*
X137530000Y-73332500D02*
X137530000Y-76292500D01*
X137530000Y-76292500D02*
X136070000Y-76292500D01*
%TO.C,C2*%
X133220000Y-79250000D02*
X135180000Y-79250000D01*
X133220000Y-82650000D02*
X133220000Y-79250000D01*
X135180000Y-79250000D02*
X135180000Y-82650000D01*
X135180000Y-82650000D02*
X133220000Y-82650000D01*
%TD*%
D43*
X127928333Y-80770566D02*
X127928333Y-81563900D01*
X127928333Y-81563900D02*
X127975000Y-81657233D01*
X127975000Y-81657233D02*
X128021666Y-81703900D01*
X128021666Y-81703900D02*
X128115000Y-81750566D01*
X128115000Y-81750566D02*
X128301666Y-81750566D01*
X128301666Y-81750566D02*
X128395000Y-81703900D01*
X128395000Y-81703900D02*
X128441666Y-81657233D01*
X128441666Y-81657233D02*
X128488333Y-81563900D01*
X128488333Y-81563900D02*
X128488333Y-80770566D01*
X128908333Y-80863900D02*
X128955000Y-80817233D01*
X128955000Y-80817233D02*
X129048333Y-80770566D01*
X129048333Y-80770566D02*
X129281667Y-80770566D01*
X129281667Y-80770566D02*
X129375000Y-80817233D01*
X129375000Y-80817233D02*
X129421667Y-80863900D01*
X129421667Y-80863900D02*
X129468333Y-80957233D01*
X129468333Y-80957233D02*
X129468333Y-81050566D01*
X129468333Y-81050566D02*
X129421667Y-81190566D01*
X129421667Y-81190566D02*
X128861667Y-81750566D01*
X128861667Y-81750566D02*
X129468333Y-81750566D01*
X139254819Y-80733333D02*
X139969104Y-80733333D01*
X139969104Y-80733333D02*
X140111961Y-80780952D01*
X140111961Y-80780952D02*
X140207200Y-80876190D01*
X140207200Y-80876190D02*
X140254819Y-81019047D01*
X140254819Y-81019047D02*
X140254819Y-81114285D01*
X140254819Y-79733333D02*
X140254819Y-80304761D01*
X140254819Y-80019047D02*
X139254819Y-80019047D01*
X139254819Y-80019047D02*
X139397676Y-80114285D01*
X139397676Y-80114285D02*
X139492914Y-80209523D01*
X139492914Y-80209523D02*
X139540533Y-80304761D01*
D47*
X134581927Y-84866666D02*
X134391451Y-84999999D01*
X134581927Y-85095237D02*
X134181927Y-85095237D01*
X134181927Y-85095237D02*
X134181927Y-84942856D01*
X134181927Y-84942856D02*
X134200975Y-84904761D01*
X134200975Y-84904761D02*
X134220022Y-84885714D01*
X134220022Y-84885714D02*
X134258118Y-84866666D01*
X134258118Y-84866666D02*
X134315260Y-84866666D01*
X134315260Y-84866666D02*
X134353356Y-84885714D01*
X134353356Y-84885714D02*
X134372403Y-84904761D01*
X134372403Y-84904761D02*
X134391451Y-84942856D01*
X134391451Y-84942856D02*
X134391451Y-85095237D01*
X134315260Y-84523809D02*
X134581927Y-84523809D01*
X134162880Y-84619047D02*
X134448594Y-84714285D01*
X134448594Y-84714285D02*
X134448594Y-84466666D01*
D45*
X121563855Y-83660475D02*
X120763855Y-83660475D01*
X120763855Y-83660475D02*
X120763855Y-83469999D01*
X120763855Y-83469999D02*
X120801950Y-83355713D01*
X120801950Y-83355713D02*
X120878140Y-83279523D01*
X120878140Y-83279523D02*
X120954331Y-83241428D01*
X120954331Y-83241428D02*
X121106712Y-83203332D01*
X121106712Y-83203332D02*
X121220998Y-83203332D01*
X121220998Y-83203332D02*
X121373379Y-83241428D01*
X121373379Y-83241428D02*
X121449569Y-83279523D01*
X121449569Y-83279523D02*
X121525760Y-83355713D01*
X121525760Y-83355713D02*
X121563855Y-83469999D01*
X121563855Y-83469999D02*
X121563855Y-83660475D01*
X121563855Y-82441428D02*
X121563855Y-82898571D01*
X121563855Y-82669999D02*
X120763855Y-82669999D01*
X120763855Y-82669999D02*
X120878140Y-82746190D01*
X120878140Y-82746190D02*
X120954331Y-82822380D01*
X120954331Y-82822380D02*
X120992426Y-82898571D01*
X116171355Y-76980475D02*
X115371355Y-76980475D01*
X115371355Y-76980475D02*
X115371355Y-76789999D01*
X115371355Y-76789999D02*
X115409450Y-76675713D01*
X115409450Y-76675713D02*
X115485640Y-76599523D01*
X115485640Y-76599523D02*
X115561831Y-76561428D01*
X115561831Y-76561428D02*
X115714212Y-76523332D01*
X115714212Y-76523332D02*
X115828498Y-76523332D01*
X115828498Y-76523332D02*
X115980879Y-76561428D01*
X115980879Y-76561428D02*
X116057069Y-76599523D01*
X116057069Y-76599523D02*
X116133260Y-76675713D01*
X116133260Y-76675713D02*
X116171355Y-76789999D01*
X116171355Y-76789999D02*
X116171355Y-76980475D01*
X115371355Y-76256666D02*
X115371355Y-75761428D01*
X115371355Y-75761428D02*
X115676117Y-76028094D01*
X115676117Y-76028094D02*
X115676117Y-75913809D01*
X115676117Y-75913809D02*
X115714212Y-75837618D01*
X115714212Y-75837618D02*
X115752307Y-75799523D01*
X115752307Y-75799523D02*
X115828498Y-75761428D01*
X115828498Y-75761428D02*
X116018974Y-75761428D01*
X116018974Y-75761428D02*
X116095164Y-75799523D01*
X116095164Y-75799523D02*
X116133260Y-75837618D01*
X116133260Y-75837618D02*
X116171355Y-75913809D01*
X116171355Y-75913809D02*
X116171355Y-76142380D01*
X116171355Y-76142380D02*
X116133260Y-76218571D01*
X116133260Y-76218571D02*
X116095164Y-76256666D01*
D48*
X127642381Y-76108329D02*
X127335715Y-75670234D01*
X127116667Y-76108329D02*
X127116667Y-75188329D01*
X127116667Y-75188329D02*
X127467143Y-75188329D01*
X127467143Y-75188329D02*
X127554762Y-75232139D01*
X127554762Y-75232139D02*
X127598572Y-75275948D01*
X127598572Y-75275948D02*
X127642381Y-75363567D01*
X127642381Y-75363567D02*
X127642381Y-75494996D01*
X127642381Y-75494996D02*
X127598572Y-75582615D01*
X127598572Y-75582615D02*
X127554762Y-75626424D01*
X127554762Y-75626424D02*
X127467143Y-75670234D01*
X127467143Y-75670234D02*
X127116667Y-75670234D01*
X127905239Y-75188329D02*
X128211905Y-76108329D01*
X128211905Y-76108329D02*
X128518572Y-75188329D01*
X129307143Y-76108329D02*
X128781429Y-76108329D01*
X129044286Y-76108329D02*
X129044286Y-75188329D01*
X129044286Y-75188329D02*
X128956667Y-75319758D01*
X128956667Y-75319758D02*
X128869048Y-75407377D01*
X128869048Y-75407377D02*
X128781429Y-75451186D01*
D47*
X137181927Y-84691666D02*
X136991451Y-84824999D01*
X137181927Y-84920237D02*
X136781927Y-84920237D01*
X136781927Y-84920237D02*
X136781927Y-84767856D01*
X136781927Y-84767856D02*
X136800975Y-84729761D01*
X136800975Y-84729761D02*
X136820022Y-84710714D01*
X136820022Y-84710714D02*
X136858118Y-84691666D01*
X136858118Y-84691666D02*
X136915260Y-84691666D01*
X136915260Y-84691666D02*
X136953356Y-84710714D01*
X136953356Y-84710714D02*
X136972403Y-84729761D01*
X136972403Y-84729761D02*
X136991451Y-84767856D01*
X136991451Y-84767856D02*
X136991451Y-84920237D01*
X136781927Y-84329761D02*
X136781927Y-84520237D01*
X136781927Y-84520237D02*
X136972403Y-84539285D01*
X136972403Y-84539285D02*
X136953356Y-84520237D01*
X136953356Y-84520237D02*
X136934308Y-84482142D01*
X136934308Y-84482142D02*
X136934308Y-84386904D01*
X136934308Y-84386904D02*
X136953356Y-84348809D01*
X136953356Y-84348809D02*
X136972403Y-84329761D01*
X136972403Y-84329761D02*
X137010499Y-84310714D01*
X137010499Y-84310714D02*
X137105737Y-84310714D01*
X137105737Y-84310714D02*
X137143832Y-84329761D01*
X137143832Y-84329761D02*
X137162880Y-84348809D01*
X137162880Y-84348809D02*
X137181927Y-84386904D01*
X137181927Y-84386904D02*
X137181927Y-84482142D01*
X137181927Y-84482142D02*
X137162880Y-84520237D01*
X137162880Y-84520237D02*
X137143832Y-84539285D01*
X131333333Y-85781927D02*
X131200000Y-85591451D01*
X131104762Y-85781927D02*
X131104762Y-85381927D01*
X131104762Y-85381927D02*
X131257143Y-85381927D01*
X131257143Y-85381927D02*
X131295238Y-85400975D01*
X131295238Y-85400975D02*
X131314285Y-85420022D01*
X131314285Y-85420022D02*
X131333333Y-85458118D01*
X131333333Y-85458118D02*
X131333333Y-85515260D01*
X131333333Y-85515260D02*
X131314285Y-85553356D01*
X131314285Y-85553356D02*
X131295238Y-85572403D01*
X131295238Y-85572403D02*
X131257143Y-85591451D01*
X131257143Y-85591451D02*
X131104762Y-85591451D01*
X131466666Y-85381927D02*
X131714285Y-85381927D01*
X131714285Y-85381927D02*
X131580952Y-85534308D01*
X131580952Y-85534308D02*
X131638095Y-85534308D01*
X131638095Y-85534308D02*
X131676190Y-85553356D01*
X131676190Y-85553356D02*
X131695238Y-85572403D01*
X131695238Y-85572403D02*
X131714285Y-85610499D01*
X131714285Y-85610499D02*
X131714285Y-85705737D01*
X131714285Y-85705737D02*
X131695238Y-85743832D01*
X131695238Y-85743832D02*
X131676190Y-85762880D01*
X131676190Y-85762880D02*
X131638095Y-85781927D01*
X131638095Y-85781927D02*
X131523809Y-85781927D01*
X131523809Y-85781927D02*
X131485714Y-85762880D01*
X131485714Y-85762880D02*
X131466666Y-85743832D01*
X126308333Y-85381927D02*
X126175000Y-85191451D01*
X126079762Y-85381927D02*
X126079762Y-84981927D01*
X126079762Y-84981927D02*
X126232143Y-84981927D01*
X126232143Y-84981927D02*
X126270238Y-85000975D01*
X126270238Y-85000975D02*
X126289285Y-85020022D01*
X126289285Y-85020022D02*
X126308333Y-85058118D01*
X126308333Y-85058118D02*
X126308333Y-85115260D01*
X126308333Y-85115260D02*
X126289285Y-85153356D01*
X126289285Y-85153356D02*
X126270238Y-85172403D01*
X126270238Y-85172403D02*
X126232143Y-85191451D01*
X126232143Y-85191451D02*
X126079762Y-85191451D01*
X126689285Y-85381927D02*
X126460714Y-85381927D01*
X126575000Y-85381927D02*
X126575000Y-84981927D01*
X126575000Y-84981927D02*
X126536904Y-85039070D01*
X126536904Y-85039070D02*
X126498809Y-85077165D01*
X126498809Y-85077165D02*
X126460714Y-85096213D01*
D49*
X136627149Y-78195833D02*
X136389054Y-78362499D01*
X136627149Y-78481547D02*
X136127149Y-78481547D01*
X136127149Y-78481547D02*
X136127149Y-78291071D01*
X136127149Y-78291071D02*
X136150959Y-78243452D01*
X136150959Y-78243452D02*
X136174768Y-78219642D01*
X136174768Y-78219642D02*
X136222387Y-78195833D01*
X136222387Y-78195833D02*
X136293816Y-78195833D01*
X136293816Y-78195833D02*
X136341435Y-78219642D01*
X136341435Y-78219642D02*
X136365244Y-78243452D01*
X136365244Y-78243452D02*
X136389054Y-78291071D01*
X136389054Y-78291071D02*
X136389054Y-78481547D01*
X136174768Y-78005356D02*
X136150959Y-77981547D01*
X136150959Y-77981547D02*
X136127149Y-77933928D01*
X136127149Y-77933928D02*
X136127149Y-77814880D01*
X136127149Y-77814880D02*
X136150959Y-77767261D01*
X136150959Y-77767261D02*
X136174768Y-77743452D01*
X136174768Y-77743452D02*
X136222387Y-77719642D01*
X136222387Y-77719642D02*
X136270006Y-77719642D01*
X136270006Y-77719642D02*
X136341435Y-77743452D01*
X136341435Y-77743452D02*
X136627149Y-78029166D01*
X136627149Y-78029166D02*
X136627149Y-77719642D01*
D47*
X136581927Y-81682737D02*
X136181927Y-81682737D01*
X136181927Y-81682737D02*
X136181927Y-81587499D01*
X136181927Y-81587499D02*
X136200975Y-81530356D01*
X136200975Y-81530356D02*
X136239070Y-81492261D01*
X136239070Y-81492261D02*
X136277165Y-81473214D01*
X136277165Y-81473214D02*
X136353356Y-81454166D01*
X136353356Y-81454166D02*
X136410499Y-81454166D01*
X136410499Y-81454166D02*
X136486689Y-81473214D01*
X136486689Y-81473214D02*
X136524784Y-81492261D01*
X136524784Y-81492261D02*
X136562880Y-81530356D01*
X136562880Y-81530356D02*
X136581927Y-81587499D01*
X136581927Y-81587499D02*
X136581927Y-81682737D01*
X136315260Y-81111309D02*
X136581927Y-81111309D01*
X136162880Y-81206547D02*
X136448594Y-81301785D01*
X136448594Y-81301785D02*
X136448594Y-81054166D01*
D49*
X134379530Y-75083333D02*
X134403340Y-75107142D01*
X134403340Y-75107142D02*
X134427149Y-75178571D01*
X134427149Y-75178571D02*
X134427149Y-75226190D01*
X134427149Y-75226190D02*
X134403340Y-75297618D01*
X134403340Y-75297618D02*
X134355720Y-75345237D01*
X134355720Y-75345237D02*
X134308101Y-75369047D01*
X134308101Y-75369047D02*
X134212863Y-75392856D01*
X134212863Y-75392856D02*
X134141435Y-75392856D01*
X134141435Y-75392856D02*
X134046197Y-75369047D01*
X134046197Y-75369047D02*
X133998578Y-75345237D01*
X133998578Y-75345237D02*
X133950959Y-75297618D01*
X133950959Y-75297618D02*
X133927149Y-75226190D01*
X133927149Y-75226190D02*
X133927149Y-75178571D01*
X133927149Y-75178571D02*
X133950959Y-75107142D01*
X133950959Y-75107142D02*
X133974768Y-75083333D01*
X134427149Y-74607142D02*
X134427149Y-74892856D01*
X134427149Y-74749999D02*
X133927149Y-74749999D01*
X133927149Y-74749999D02*
X133998578Y-74797618D01*
X133998578Y-74797618D02*
X134046197Y-74845237D01*
X134046197Y-74845237D02*
X134070006Y-74892856D01*
D47*
X136981927Y-75107737D02*
X136581927Y-75107737D01*
X136581927Y-75107737D02*
X136581927Y-75012499D01*
X136581927Y-75012499D02*
X136600975Y-74955356D01*
X136600975Y-74955356D02*
X136639070Y-74917261D01*
X136639070Y-74917261D02*
X136677165Y-74898214D01*
X136677165Y-74898214D02*
X136753356Y-74879166D01*
X136753356Y-74879166D02*
X136810499Y-74879166D01*
X136810499Y-74879166D02*
X136886689Y-74898214D01*
X136886689Y-74898214D02*
X136924784Y-74917261D01*
X136924784Y-74917261D02*
X136962880Y-74955356D01*
X136962880Y-74955356D02*
X136981927Y-75012499D01*
X136981927Y-75012499D02*
X136981927Y-75107737D01*
X136620022Y-74726785D02*
X136600975Y-74707737D01*
X136600975Y-74707737D02*
X136581927Y-74669642D01*
X136581927Y-74669642D02*
X136581927Y-74574404D01*
X136581927Y-74574404D02*
X136600975Y-74536309D01*
X136600975Y-74536309D02*
X136620022Y-74517261D01*
X136620022Y-74517261D02*
X136658118Y-74498214D01*
X136658118Y-74498214D02*
X136696213Y-74498214D01*
X136696213Y-74498214D02*
X136753356Y-74517261D01*
X136753356Y-74517261D02*
X136981927Y-74745833D01*
X136981927Y-74745833D02*
X136981927Y-74498214D01*
D49*
X134379530Y-81033333D02*
X134403340Y-81057142D01*
X134403340Y-81057142D02*
X134427149Y-81128571D01*
X134427149Y-81128571D02*
X134427149Y-81176190D01*
X134427149Y-81176190D02*
X134403340Y-81247618D01*
X134403340Y-81247618D02*
X134355720Y-81295237D01*
X134355720Y-81295237D02*
X134308101Y-81319047D01*
X134308101Y-81319047D02*
X134212863Y-81342856D01*
X134212863Y-81342856D02*
X134141435Y-81342856D01*
X134141435Y-81342856D02*
X134046197Y-81319047D01*
X134046197Y-81319047D02*
X133998578Y-81295237D01*
X133998578Y-81295237D02*
X133950959Y-81247618D01*
X133950959Y-81247618D02*
X133927149Y-81176190D01*
X133927149Y-81176190D02*
X133927149Y-81128571D01*
X133927149Y-81128571D02*
X133950959Y-81057142D01*
X133950959Y-81057142D02*
X133974768Y-81033333D01*
X133974768Y-80842856D02*
X133950959Y-80819047D01*
X133950959Y-80819047D02*
X133927149Y-80771428D01*
X133927149Y-80771428D02*
X133927149Y-80652380D01*
X133927149Y-80652380D02*
X133950959Y-80604761D01*
X133950959Y-80604761D02*
X133974768Y-80580952D01*
X133974768Y-80580952D02*
X134022387Y-80557142D01*
X134022387Y-80557142D02*
X134070006Y-80557142D01*
X134070006Y-80557142D02*
X134141435Y-80580952D01*
X134141435Y-80580952D02*
X134427149Y-80866666D01*
X134427149Y-80866666D02*
X134427149Y-80557142D01*
%TO.C,U2*%
D42*
X126725000Y-79830000D02*
X127700000Y-78855000D01*
X126725000Y-83755000D02*
X126725000Y-79830000D01*
X127700000Y-78855000D02*
X130625000Y-78855000D01*
X130625000Y-78855000D02*
X130625000Y-83755000D01*
X130625000Y-83755000D02*
X126725000Y-83755000D01*
%TO.C,J1*%
X138530000Y-77225000D02*
X139165000Y-76590000D01*
X138530000Y-84210000D02*
X138530000Y-77225000D01*
X139165000Y-76590000D02*
X141070000Y-76590000D01*
X141070000Y-76590000D02*
X141070000Y-84210000D01*
X141070000Y-84210000D02*
X138530000Y-84210000D01*
%TO.C,R4*%
X133987500Y-84000000D02*
X134812500Y-84000000D01*
X133987500Y-85600000D02*
X133987500Y-84000000D01*
X134812500Y-84000000D02*
X134812500Y-85600000D01*
X134812500Y-85600000D02*
X133987500Y-85600000D01*
%TO.C,D1*%
X119730306Y-85570000D02*
X122669694Y-85570000D01*
X119730306Y-85570000D02*
G75*
G02*
X122669694Y-85570000I1469694J2500000D01*
G01*
X123700000Y-83070000D02*
G75*
G02*
X118700000Y-83070000I-2500000J0D01*
G01*
X118700000Y-83070000D02*
G75*
G02*
X123700000Y-83070000I2500000J0D01*
G01*
%TO.C,D3*%
X118307500Y-78890000D02*
X119307500Y-78890000D01*
X118307500Y-79290000D02*
X118307500Y-78890000D01*
X119307500Y-73890000D02*
X113207500Y-73890000D01*
X119307500Y-73890000D02*
X119307500Y-78890000D01*
X119307500Y-75120000D02*
X119307500Y-75120000D01*
X119307500Y-75120000D02*
X120577500Y-75120000D01*
X119307500Y-77660000D02*
X119307500Y-77660000D01*
X119307500Y-77660000D02*
X120577500Y-77660000D01*
X119307500Y-78890000D02*
X113207500Y-78890000D01*
X119307500Y-78890000D02*
X119307500Y-79290000D01*
X119307500Y-79290000D02*
X118307500Y-79290000D01*
X120577500Y-75120000D02*
X119307500Y-75120000D01*
X120577500Y-75120000D02*
X120577500Y-75120000D01*
X120577500Y-77660000D02*
X119307500Y-77660000D01*
X120577500Y-77660000D02*
X120577500Y-77660000D01*
X113207500Y-78890000D02*
G75*
G02*
X113207500Y-73890000I0J2500000D01*
G01*
%TO.C,RV1*%
X131501000Y-75995000D02*
X130260000Y-77236000D01*
X131610000Y-76104000D02*
X130369000Y-77345000D01*
X125445000Y-73440000D02*
X132155000Y-73440000D01*
X132155000Y-77940000D01*
X125445000Y-77940000D01*
X125445000Y-73440000D01*
X131825000Y-76670000D02*
G75*
G02*
X130045000Y-76670000I-890000J0D01*
G01*
X130045000Y-76670000D02*
G75*
G02*
X131825000Y-76670000I890000J0D01*
G01*
%TO.C,R5*%
X136587500Y-83825000D02*
X137412500Y-83825000D01*
X136587500Y-85425000D02*
X136587500Y-83825000D01*
X137412500Y-83825000D02*
X137412500Y-85425000D01*
X137412500Y-85425000D02*
X136587500Y-85425000D01*
%TO.C,R3*%
X130600000Y-85187500D02*
X132200000Y-85187500D01*
X130600000Y-86012500D02*
X130600000Y-85187500D01*
X132200000Y-85187500D02*
X132200000Y-86012500D01*
X132200000Y-86012500D02*
X130600000Y-86012500D01*
%TO.C,R1*%
X125575000Y-84787500D02*
X127175000Y-84787500D01*
X125575000Y-85612500D02*
X125575000Y-84787500D01*
X127175000Y-84787500D02*
X127175000Y-85612500D01*
X127175000Y-85612500D02*
X125575000Y-85612500D01*
%TO.C,R2*%
X135775000Y-77112500D02*
X137025000Y-77112500D01*
X135775000Y-79112500D02*
X135775000Y-77112500D01*
X137025000Y-77112500D02*
X137025000Y-79112500D01*
X137025000Y-79112500D02*
X135775000Y-79112500D01*
%TO.C,D4*%
X136000000Y-80587500D02*
X136000000Y-81887500D01*
X136000000Y-81887500D02*
X136300000Y-82187500D01*
X136300000Y-82187500D02*
X136800000Y-82187500D01*
X136800000Y-80587500D02*
X136000000Y-80587500D01*
X136800000Y-82187500D02*
X136800000Y-80587500D01*
%TO.C,C1*%
X133575000Y-74000000D02*
X134825000Y-74000000D01*
X133575000Y-76000000D02*
X133575000Y-74000000D01*
X134825000Y-74000000D02*
X134825000Y-76000000D01*
X134825000Y-76000000D02*
X133575000Y-76000000D01*
%TO.C,D2*%
X136400000Y-74012500D02*
X136400000Y-75612500D01*
X136400000Y-75612500D02*
X137200000Y-75612500D01*
X136900000Y-74012500D02*
X136400000Y-74012500D01*
X137200000Y-74312500D02*
X136900000Y-74012500D01*
X137200000Y-75612500D02*
X137200000Y-74312500D01*
%TO.C,C2*%
X133575000Y-79950000D02*
X134825000Y-79950000D01*
X133575000Y-81950000D02*
X133575000Y-79950000D01*
X134825000Y-79950000D02*
X134825000Y-81950000D01*
X134825000Y-81950000D02*
X133575000Y-81950000D01*
%TD*%
M02*
